<svg width="125" height="108" viewBox="0 0 125 108" fill="none" xmlns="http://www.w3.org/2000/svg">
<path d="M89.2994 26.0158C89.8967 25.6149 90.3099 25.8563 90.7108 26.2122C91.9831 27.3495 92.6827 28.7732 92.8627 30.4628C92.9036 30.8433 92.9363 31.2565 93.1 31.5878C93.2145 31.821 93.5786 32.0992 93.7914 32.0706C94.0737 32.0338 94.4091 31.7638 94.5523 31.5019C94.6792 31.2688 94.6464 30.8883 94.5687 30.606C94.2946 29.5955 94.0287 28.5768 93.6482 27.6032C93.3741 26.8954 92.9282 26.2531 92.4331 25.349C93.1409 25.5004 93.6523 25.5822 94.1432 25.7172C96.3933 26.3268 98.7088 26.7727 100.697 28.0859C101.601 28.6832 102.444 29.3664 103.291 30.0414C103.839 30.4751 104.354 30.9496 104.862 31.4324C105.815 32.3406 106.776 33.2406 107.681 34.1938C108.83 35.4048 109.943 36.6526 111.047 37.9086C113.735 40.9523 116.194 44.1638 117.978 47.8294C119.369 50.689 120.551 53.6059 121.152 56.7928C121.827 60.3766 121.876 63.9808 122.142 67.585C122.281 69.4874 122.523 71.3775 122.666 73.2798C122.822 75.3335 122.944 77.3913 123.038 79.4491C123.177 82.5297 122.858 85.5898 122.523 88.6458C122.294 90.7159 121.492 92.6264 120.764 94.5533C120.518 95.2079 120.236 95.8502 119.941 96.4843C118.841 98.8244 116.947 100.248 114.648 101.336C111.804 102.682 108.846 103.566 105.766 104.081C105.385 104.147 104.993 104.18 104.604 104.18C101.409 104.167 98.2138 104.22 95.0228 104.094C92.0281 103.975 89.0458 103.635 86.0552 103.431C84.4638 103.325 82.8642 103.271 81.2687 103.259C77.8404 103.235 74.4161 103.263 70.9878 103.243C70.2146 103.239 69.4414 103.112 68.6682 103.042C67.5432 102.94 66.4222 102.834 65.2972 102.74C61.6889 102.433 58.0765 102.187 54.4518 102.306C53.7154 102.33 52.9749 102.388 52.2426 102.482C45.4433 103.357 38.6358 104.114 31.7669 103.922C29.8318 103.869 27.9008 103.607 25.9658 103.443C25.3848 103.394 24.7998 103.361 24.2189 103.329C22.0752 103.21 19.9315 103.018 17.9023 102.31C15.3127 101.41 12.8703 100.162 10.9516 98.1657C9.6629 96.8279 8.39059 95.4042 7.45783 93.8128C6.48825 92.1641 5.49002 90.4541 5.08501 88.5354C4.74136 86.899 4.36089 85.2461 4.28316 83.5852C4.12361 80.2019 4.09088 76.8022 4.93364 73.4803C5.91959 69.5979 7.07326 65.7645 8.64014 62.0662C9.68336 59.5952 10.5957 57.0629 11.7657 54.6573C12.6821 52.7754 13.8603 51.0204 14.9976 49.2571C16.8754 46.3484 18.7982 43.4724 20.7292 40.5964C22.5456 37.8881 24.3334 35.1553 26.2521 32.5165C27.5572 30.7246 29.1445 29.1496 30.9937 27.8977C33.4688 26.2204 35.8906 24.4163 38.7871 23.4917C40.0676 23.0826 41.3931 22.8207 42.9191 22.4362C42.735 22.8944 42.6614 23.1275 42.5509 23.3444C41.6836 25.0381 40.7836 26.7154 39.9531 28.4255C39.6503 29.0473 39.4744 29.7387 39.278 30.4096C39.1921 30.7042 39.1921 31.0274 39.184 31.3342C39.1717 31.7842 39.3926 32.0951 39.8508 32.1401C40.3131 32.1851 40.5381 31.9111 40.6445 31.4651C41.2786 28.7773 42.6123 26.3963 44.0155 24.0644C44.5228 23.2175 45.1283 22.3503 46.3024 22.2644C47.0961 22.2071 47.3088 22.4771 47.0347 23.2053C46.3433 25.0544 45.6519 26.9077 44.9851 28.765C44.8419 29.1618 44.7642 29.5955 44.7396 30.0169C44.7233 30.2624 44.8133 30.5692 44.9687 30.7614C45.3328 31.2237 45.8278 31.1256 46.0242 30.5733C46.1919 30.0987 46.331 29.6078 46.4415 29.1128C46.8874 27.1654 47.6811 25.3531 48.5688 23.5735C49.0066 22.698 49.6448 22.3216 50.6266 22.3993C53.069 22.5834 55.5237 22.6694 57.9619 22.9107C60.0852 23.1194 62.188 23.5203 64.3071 23.7617C65.6572 23.9171 67.0236 23.9253 68.3777 24.0235C69.0732 24.0767 69.7605 24.2157 70.4519 24.2607C72.1988 24.3671 73.9457 24.4981 75.6966 24.5103C77.6931 24.5267 79.6486 24.809 81.6082 25.1321C82.9092 25.349 84.2306 25.4881 85.552 25.574C87.6098 25.7049 88.5057 26.6213 89.013 29.1046C89.1971 30.0169 89.283 30.9497 89.4303 31.8702C89.5081 32.357 89.8517 32.6188 90.314 32.6597C90.6985 32.6924 91.0095 32.2424 90.8908 31.6942C90.4817 29.8001 90.1626 27.8773 89.3035 26.0117L89.2994 26.0158ZM105.5 84.1907C106.825 83.9534 106.956 84.027 106.989 85.0907C107.03 86.453 107.001 87.8153 107.038 89.1777C107.059 89.8322 107.112 90.4991 107.247 91.1373C107.349 91.62 107.689 91.9964 108.261 91.8859C109.943 91.5627 111.469 90.9491 112.447 89.4354C113.592 87.6599 114.275 85.7289 114.185 83.6015C114.112 81.7769 113.899 79.9564 113.809 78.1318C113.698 75.8776 113.658 73.6193 113.58 71.3652C113.51 69.336 112.884 67.4869 111.767 65.7891C111.403 65.2368 111.08 64.66 110.761 64.079C110.164 62.9949 109.431 62.0376 108.208 61.6367C106.015 60.9167 103.941 61.0353 102.035 62.5203C101.065 63.2772 100.026 63.9522 98.9829 64.6027C98.4306 64.9463 98.1115 65.3554 98.1115 66.0018C98.1115 66.6236 98.0911 67.2496 98.1197 67.8674C98.1811 69.1479 98.3079 70.4243 98.3325 71.7048C98.3488 72.5148 98.1115 72.7152 97.3302 72.8625C97.1011 72.9034 96.8679 72.9321 96.6347 72.9607C95.8042 73.0548 95.571 72.9484 95.3296 72.1671C95.0555 71.2752 94.8673 70.3588 94.6219 69.4629C94.4255 68.751 94.2414 68.031 93.9673 67.3519C93.6809 66.6441 93.2227 66.3864 92.5804 66.7095C91.3818 67.315 90.0972 67.3232 88.833 67.4296C85.1102 67.7323 81.3832 68.0269 77.6399 67.6669C77.104 67.6137 76.5476 67.6669 76.0157 67.7651C74.8334 67.986 74.4448 68.436 74.3057 69.6388C74.2689 69.9497 74.2648 70.2606 74.2361 70.5715C74.1093 71.8766 73.913 72.0606 72.5629 72.077C72.2929 72.077 72.0188 72.0647 71.7488 72.0279C70.1778 71.8152 68.6314 71.447 67.0113 71.5656C65.784 71.6556 65.7799 71.492 65.4854 70.2565C65.3381 69.6429 64.974 69.0251 64.5485 68.5546C64.3276 68.3132 63.7589 68.3542 63.3416 68.3255C62.4498 68.2683 61.5539 68.2192 60.6579 68.2151C59.0256 68.2069 57.3892 68.2601 55.7568 68.2356C54.775 68.2192 53.8299 68.2519 52.889 68.616C51.9072 68.9965 51.4367 69.5037 51.3508 70.547C51.3017 71.1279 51.2812 71.7129 51.2239 72.2939C51.1748 72.7807 50.9089 73.0753 50.3894 73.0875C50.193 73.0916 50.0007 73.108 49.8044 73.0998C45.9547 72.9402 42.105 72.7766 38.2553 72.6048C38.0753 72.5966 37.9035 72.482 37.6457 72.3879C37.7685 71.0993 37.8503 69.831 38.018 68.571C38.1121 67.8755 38.108 67.2619 37.5803 66.7341C36.353 65.4986 35.0643 64.39 33.1865 64.345C32.9983 64.3409 32.7978 64.2795 32.6219 64.2017C30.7973 63.359 28.8418 63.3958 26.8944 63.3181C24.7303 63.2322 23.1348 64.39 21.8461 65.8341C20.6065 67.221 19.9069 69.0128 19.4773 70.8538C19.011 72.8584 18.61 74.8794 17.8737 76.8145C17.0882 78.8846 16.4336 81.0119 15.5377 83.0329C14.7317 84.8452 14.2817 86.6575 14.2899 88.6499C14.2981 90.4336 15.0508 91.7223 16.4377 92.6673C17.3623 93.2974 18.3891 93.776 19.371 94.3201C20.7006 95.0565 21.9033 94.3692 21.9483 92.8555C21.9729 91.9227 21.9565 90.9859 22.0629 90.0613C22.1406 89.374 22.3615 88.7031 22.562 88.0362C22.7093 87.533 23.0447 87.4103 23.5602 87.5862C24.3702 87.8644 25.1925 88.0976 26.023 88.3063C26.874 88.5231 27.7372 88.6867 28.7477 88.9076C28.7477 90.0981 28.6822 91.2641 28.7722 92.4219C28.8295 93.1746 29.0463 93.9356 29.2959 94.6556C29.5168 95.2979 30.0404 95.6211 30.7605 95.5843C31.73 95.5311 32.7037 95.5024 33.6733 95.4697C35.5388 95.4083 37.4125 95.2406 39.2699 95.3265C41.3645 95.4206 43.4468 95.7561 45.5374 95.9525C46.4619 96.0425 47.407 96.157 48.3234 96.0752C49.5998 95.9606 50.2339 95.0851 50.3035 93.8087C50.3525 92.9209 50.4998 92.0332 50.6676 91.1577C50.7576 90.6954 50.9785 90.2373 51.5799 90.2659C52.5822 90.315 53.5845 90.3886 54.6645 90.4582C54.8732 91.8696 55.0491 93.1746 55.2741 94.4715C55.3723 95.0402 55.5277 95.6006 55.7159 96.1447C55.9041 96.6888 56.301 96.8525 56.9105 96.8075C58.4979 96.6848 60.0934 96.6234 61.6889 96.5988C63.5953 96.5661 65.4976 96.6111 67.4041 96.5947C68.3 96.5866 69.1919 96.4965 70.0878 96.4761C73.3156 96.3984 76.5394 96.3329 79.7673 96.2552C81.0478 96.2225 82.2137 95.032 82.23 93.7351C82.2382 92.9946 82.181 92.2541 82.1891 91.5177C82.2014 89.9754 82.2423 88.429 82.271 86.7762H87.3398C87.5116 87.979 87.6957 89.1613 87.8389 90.3518C87.9698 91.4318 88.0066 92.5242 88.1662 93.6001C88.3298 94.6924 88.6039 94.8724 89.7331 94.8642C90.5104 94.8601 91.2918 94.8765 92.0691 94.8356C94.2046 94.7333 96.3483 94.6965 98.4715 94.4592C100.595 94.226 102.694 93.7883 104.8 93.4283C105.647 93.281 105.946 92.7492 105.88 91.8C105.733 89.7831 105.623 87.7621 105.508 85.7453C105.48 85.2502 105.504 84.7511 105.504 84.1988L105.5 84.1907ZM69.6296 52.4031C69.7114 53.0454 69.691 53.7409 69.9037 54.3546C70.2433 55.3405 70.6565 56.3224 71.1801 57.2224C71.9983 58.6297 73.1357 59.7261 74.7066 60.3152C75.4716 60.6016 76.1998 60.9739 76.9485 61.3094C78.6463 62.0744 80.4382 62.4549 82.2832 62.2626C84.2101 62.058 86.1247 61.7185 88.0353 61.4076C89.1603 61.2235 90.2322 60.8798 91.0586 60.0289C91.84 59.2229 92.6172 58.4129 93.3618 57.5701C94.9205 55.8151 95.0228 53.5241 95.1537 51.4254C95.3542 48.2384 94.6587 45.0965 93.6196 42.0405C93.0673 40.4164 92.2654 39.1154 90.9727 37.9208C88.5753 35.7116 85.8015 34.738 82.6432 34.5498C82.0255 34.5129 81.3996 34.4679 80.7941 34.3452C79.0472 33.9893 77.3904 34.2839 75.8071 35.0202C74.1052 35.8098 72.8984 37.2008 71.7324 38.6122C71.1719 39.2913 70.6442 39.995 69.9937 40.8255C69.8014 40.4736 69.6255 40.2404 69.5314 39.9745C68.2509 36.3171 65.4567 34.6725 61.8198 34.0793C60.7888 33.9115 59.7824 33.6088 58.7719 33.3306C57.4219 32.9624 56.1005 32.4879 54.6604 32.6966C52.8154 32.9625 50.9703 33.2284 49.1866 33.797C47.0552 34.4761 45.0424 35.3107 43.5818 37.1558C42.3382 38.7308 41.3808 40.4532 40.6035 42.2778C38.9508 46.1479 38.6357 50.1408 39.5562 54.2646C40.1044 56.7151 41.5895 58.4825 43.5941 59.7302C46.7974 61.7267 50.3812 62.5817 54.1654 62.5531C54.5541 62.5531 54.9509 62.594 55.3273 62.5285C57.4383 62.1808 59.5042 61.7267 61.4843 60.8389C63.988 59.7179 65.8863 57.9424 67.4736 55.7987C68.2959 54.6901 68.9587 53.4668 69.6296 52.399V52.4031ZM11.7739 63.944C11.197 63.8949 10.8329 64.169 10.8207 64.6722C10.8084 65.1468 11.2461 65.6827 11.6962 65.7482C12.1257 65.8095 12.5962 65.3309 12.6371 64.7868C12.6739 64.2754 12.3957 64.0013 11.7739 63.9481V63.944ZM115.928 48.038C115.94 47.4694 115.572 46.9989 115.102 46.9784C114.684 46.962 114.243 47.4366 114.247 47.8989C114.247 48.4389 114.656 48.9094 115.126 48.9176C115.67 48.9257 115.916 48.6599 115.928 48.038ZM13.803 60.7816C13.2426 60.7202 13.0012 60.9125 12.9562 61.4526C12.9112 62.0253 13.1689 62.3444 13.7212 62.3976C14.3185 62.459 14.6949 62.2012 14.7195 61.7185C14.7481 61.1335 14.474 60.8553 13.799 60.7816H13.803ZM117.785 50.7872C117.806 50.3085 117.397 49.8339 116.963 49.8298C116.538 49.8298 116.133 50.2103 116.124 50.6235C116.112 51.1349 116.456 51.5931 116.881 51.6258C117.36 51.6667 117.761 51.2904 117.785 50.7831V50.7872Z" fill="#FF9439"/>
<path d="M98.1239 71.3898C98.1403 71.7457 98.1648 72.0976 98.1853 72.4535C98.2998 72.2858 98.3448 72.0526 98.3366 71.7007C98.3203 70.8089 98.2507 69.917 98.1934 69.0252C98.1444 69.1765 98.1157 69.3402 98.1157 69.5243C98.1157 70.1461 98.0953 70.7721 98.1239 71.3898Z" fill="#FFC34F"/>
<path d="M37.8136 70.5389C37.7604 71.1484 37.7113 71.758 37.6499 72.3757C37.7726 72.4207 37.879 72.4698 37.9731 72.5107C37.9895 72.3675 38.0058 72.2284 38.0222 72.0852C38.0999 71.5125 38.104 70.997 37.8095 70.5348L37.8136 70.5389Z" fill="#FFC34F"/>
<path d="M39.5522 57.7911C40.1004 60.2416 41.5855 62.009 43.5901 63.2567C46.7934 65.2532 50.3772 66.1082 54.1614 66.0796C54.55 66.0796 54.9469 66.1205 55.3233 66.055C57.4342 65.7073 59.5002 65.2532 61.4803 64.3654C63.984 63.2445 65.8823 61.469 67.4696 59.3252C68.2919 58.2166 68.9546 56.9933 69.6256 55.9256C69.7074 56.5679 69.687 57.2633 69.8997 57.877C70.2393 58.8629 70.6525 59.8448 71.1761 60.7448C71.9943 62.1522 73.1316 63.2486 74.7026 63.8377C75.4676 64.1241 76.1958 64.4963 76.9445 64.8318C78.6423 65.5968 80.4342 65.9773 82.2792 65.785C84.2061 65.5804 86.1207 65.2409 88.0313 64.93C89.1563 64.7459 90.2281 64.4022 91.0545 63.5513C91.8359 62.7454 92.6132 61.9353 93.3578 61.0926C94.9165 59.3375 95.0188 57.0465 95.1497 54.9478C95.207 54.015 95.1824 53.0905 95.1006 52.17C94.9738 54.056 94.7283 56.0197 93.3537 57.5702C92.6091 58.4088 91.8318 59.2189 91.0504 60.0289C90.2281 60.8798 89.1522 61.2276 88.0272 61.4076C86.1126 61.7185 84.202 62.058 82.2751 62.2626C80.426 62.459 78.6382 62.0744 76.9404 61.3094C76.1958 60.9739 75.4635 60.6016 74.6985 60.3153C73.1275 59.7261 71.9861 58.6339 71.172 57.2224C70.6484 56.3224 70.2352 55.3405 69.8956 54.3546C69.6829 53.7369 69.7033 53.0455 69.6215 52.4032C68.9506 53.4709 68.2878 54.6942 67.4655 55.8029C65.8741 57.9466 63.9758 59.7221 61.4762 60.843C59.4961 61.7308 57.4302 62.1808 55.3192 62.5326C54.9387 62.594 54.5419 62.5531 54.1573 62.5572C50.3731 62.5858 46.7893 61.7349 43.586 59.7344C41.5814 58.4866 40.0964 56.7193 39.5482 54.2687C39.3436 53.3605 39.2045 52.4564 39.1227 51.5563C38.9304 53.6019 39.0736 55.6801 39.5482 57.7952L39.5522 57.7911Z" fill="#FFC34F"/>
<path d="M94.1923 29.256C96.426 29.8615 98.7211 30.3074 100.697 31.6124C101.601 32.2097 102.444 32.8929 103.291 33.5679C103.839 34.0016 104.354 34.4762 104.862 34.9589C105.815 35.8671 106.776 36.7671 107.681 37.7204C108.83 38.9313 109.943 40.1791 111.047 41.4351C112.655 43.2556 114.177 45.1416 115.527 47.1462C115.687 47.2689 115.809 47.4489 115.871 47.6657C116.341 48.3899 116.791 49.1303 117.213 49.8913C117.54 50.0303 117.798 50.4068 117.781 50.7872C117.781 50.8404 117.769 50.8895 117.761 50.9345C117.83 51.0736 117.908 51.2086 117.974 51.3477C119.365 54.2073 120.547 57.1243 121.148 60.3112C121.823 63.895 121.872 67.4991 122.138 71.1034C122.277 73.0057 122.519 74.8958 122.662 76.7981C122.813 78.7946 122.932 80.7951 123.026 82.7915C123.075 81.6747 123.087 80.5578 123.034 79.4409C122.94 77.3831 122.817 75.3254 122.662 73.2716C122.519 71.3693 122.277 69.4792 122.138 67.5769C121.872 63.9768 121.823 60.3684 121.148 56.7847C120.547 53.5977 119.369 50.6809 117.974 47.8212C116.19 44.1597 113.731 40.9441 111.043 37.9004C109.939 36.6485 108.826 35.3966 107.676 34.1857C106.772 33.2325 105.807 32.3324 104.858 31.4242C104.35 30.9415 103.835 30.467 103.287 30.0333C102.44 29.3583 101.593 28.6751 100.693 28.0778C98.7047 26.7686 96.3892 26.3227 94.1391 25.709C93.6441 25.574 93.1368 25.4922 92.4291 25.3408C92.9241 26.2449 93.3659 26.8872 93.6441 27.595C93.8528 28.135 94.0287 28.6873 94.1882 29.2478L94.1923 29.256Z" fill="#FFC34F"/>
<path d="M11.6963 69.2747C12.1259 69.336 12.5963 68.8574 12.6372 68.3133C12.6741 67.8019 12.3959 67.5278 11.774 67.4746C11.1972 67.4255 10.8331 67.6996 10.8208 68.2028C10.8085 68.6774 11.2463 69.2133 11.6963 69.2788V69.2747Z" fill="#FFC34F"/>
<path d="M46.0243 30.5774C45.9056 30.9088 45.6806 31.0724 45.4393 31.052C45.2879 31.4652 45.1365 31.8783 44.9852 32.2956C44.842 32.6925 44.7642 33.1261 44.7397 33.5475C44.7233 33.793 44.8133 34.0998 44.9688 34.2921C45.3329 34.7543 45.8279 34.6562 46.0243 34.1039C46.192 33.6293 46.3311 33.1384 46.4416 32.6434C46.8875 30.6961 47.6812 28.8837 48.5689 27.1041C49.0067 26.2286 49.6449 25.8522 50.6267 25.93C53.0691 26.1141 55.5237 26.2 57.962 26.4413C60.0853 26.65 62.188 27.0509 64.3072 27.2923C65.6573 27.4477 67.0237 27.4559 68.3778 27.5541C69.0733 27.6073 69.7606 27.7464 70.452 27.7914C72.1989 27.8977 73.9457 28.0287 75.6967 28.041C77.6932 28.0573 79.6487 28.3396 81.6083 28.6628C82.9093 28.8796 84.2307 29.0187 85.5521 29.1046C87.6099 29.2355 88.5058 30.1519 89.0131 32.6352C89.1972 33.5475 89.2831 34.4803 89.4304 35.4008C89.5081 35.8876 89.8518 36.1494 90.3141 36.1903C90.6986 36.223 91.0095 35.773 90.8909 35.2248C90.7068 34.3739 90.5391 33.5148 90.3345 32.6597C90.3263 32.6597 90.3222 32.6597 90.3141 32.6597C89.8518 32.6188 89.5081 32.357 89.4304 31.8702C89.2831 30.9497 89.1972 30.0169 89.0131 29.1046C88.5058 26.6214 87.6099 25.705 85.5521 25.574C84.2348 25.4922 82.9133 25.349 81.6083 25.1322C79.6487 24.8049 77.6932 24.5227 75.6967 24.5104C73.9498 24.4981 72.1989 24.3671 70.452 24.2608C69.7565 24.2199 69.0692 24.0767 68.3778 24.0235C67.0196 23.9253 65.6573 23.9131 64.3072 23.7617C62.188 23.5203 60.0853 23.1194 57.962 22.9108C55.5237 22.6735 53.0732 22.5876 50.6267 22.3994C49.6449 22.3257 49.0067 22.698 48.5689 23.5735C47.6812 25.3531 46.8875 27.1655 46.4416 29.1128C46.327 29.6037 46.192 30.0946 46.0243 30.5733V30.5774Z" fill="#FFC34F"/>
<path d="M42.9273 25.9627C42.7432 26.4209 42.6695 26.654 42.5591 26.8709C42.1868 27.5991 41.8063 28.3273 41.4299 29.0555C41.119 29.8369 40.849 30.6388 40.6526 31.4693C40.5504 31.907 40.3254 32.177 39.8794 32.1442C39.6258 32.717 39.4621 33.3347 39.2862 33.9402C39.2003 34.2348 39.2003 34.558 39.1921 34.8648C39.1799 35.3148 39.4008 35.6257 39.859 35.6707C40.3213 35.7157 40.5463 35.4417 40.6526 34.9957C41.2868 32.3079 42.6204 29.9269 44.0237 27.595C44.4941 26.8136 45.0546 26.0159 46.0651 25.8359C46.3883 24.9604 46.7156 24.0849 47.0429 23.2135C47.317 22.4812 47.1042 22.2112 46.3106 22.2725C45.1364 22.3584 44.531 23.2298 44.0237 24.0726C43.6473 24.6985 43.275 25.3326 42.9232 25.9709C42.9232 25.9709 42.9273 25.9709 42.9313 25.9709L42.9273 25.9627Z" fill="#FFC34F"/>
<path d="M13.7213 65.9242C14.3186 65.9855 14.695 65.7278 14.7195 65.245C14.7481 64.66 14.474 64.3818 13.799 64.3082C13.2385 64.2468 12.9972 64.4391 12.9522 64.9791C12.9072 65.5518 13.1649 65.871 13.7172 65.9242H13.7213Z" fill="#FFC34F"/>
<path d="M4.94182 77.0068C5.92776 73.1244 7.08144 69.2911 8.64832 65.5927C9.69153 63.1217 10.6038 60.5894 11.7739 58.1838C12.6903 56.302 13.8685 54.5469 15.0099 52.7837C16.8877 49.8749 18.8105 46.9989 20.7415 44.1229C22.5579 41.4146 24.3457 38.6818 26.2644 36.0431C27.5695 34.2512 29.1568 32.6761 31.0059 31.4242C33.481 29.7469 35.9029 27.9428 38.7994 27.0182C39.499 26.7932 40.2149 26.6132 40.9677 26.4332C41.4995 25.4022 42.0313 24.3753 42.5591 23.3403C42.6695 23.1235 42.7432 22.8903 42.9273 22.4321C41.4013 22.8167 40.0758 23.0785 38.7953 23.4876C35.8988 24.4122 33.4769 26.2163 31.0019 27.8936C29.1568 29.1455 27.5654 30.7206 26.2603 32.5125C24.3416 35.1471 22.5538 37.8799 20.7374 40.5923C18.8105 43.4683 16.8836 46.3443 15.0058 49.2531C13.8685 51.0163 12.6862 52.7714 11.7698 54.6533C10.5998 57.0588 9.68745 59.5912 8.64423 62.0622C7.08145 65.7605 5.92777 69.5938 4.93774 73.4762C4.20953 76.3481 4.13589 79.2773 4.22998 82.2065C4.29953 80.4596 4.49999 78.721 4.93774 77.0068H4.94182Z" fill="#FFC34F"/>
<path d="M115.122 52.4441C115.666 52.4523 115.912 52.1864 115.924 51.5645C115.936 50.9959 115.568 50.5254 115.098 50.5049C114.68 50.4886 114.238 50.9631 114.243 51.4254C114.243 51.9654 114.652 52.4359 115.122 52.4441Z" fill="#FFC34F"/>
<path d="M116.881 55.1606C117.36 55.2015 117.761 54.8251 117.785 54.3178C117.806 53.8392 117.397 53.3646 116.963 53.3605C116.538 53.3605 116.133 53.741 116.124 54.1542C116.112 54.6656 116.456 55.1238 116.881 55.1565V55.1606Z" fill="#FFC34F"/>
<path d="M90.7109 29.7387C91.9832 30.876 92.6828 32.2997 92.8628 33.9893C92.9037 34.3698 92.9364 34.783 93.1 35.1143C93.2146 35.3475 93.5787 35.6257 93.7914 35.5971C94.0737 35.5603 94.4092 35.2903 94.5524 35.0284C94.6792 34.7953 94.6465 34.4148 94.5687 34.1325C94.3764 33.4247 94.1842 32.7129 93.9592 32.0174C93.9019 32.042 93.8446 32.0624 93.7914 32.0706C93.5787 32.0993 93.2187 31.821 93.1 31.5879C92.9323 31.2565 92.9037 30.8433 92.8628 30.4628C92.8137 30.0169 92.7278 29.5873 92.6091 29.1782C92.5518 29.0759 92.4986 28.9859 92.4373 28.8755C92.4659 28.8796 92.4864 28.8837 92.5109 28.8919C92.1591 27.8732 91.5659 26.9772 90.7109 26.2122C90.314 25.8563 89.8967 25.6149 89.2994 26.0158C89.8272 27.1695 90.1504 28.3396 90.4204 29.5137C90.5186 29.5792 90.6168 29.6569 90.7109 29.7428V29.7387Z" fill="#FFC34F"/>
<path d="M67.0564 20.6688C67.0277 20.4561 67.0441 20.2515 66.9705 20.092C65.7595 17.4328 64.4054 14.8636 62.4376 12.6626C61.4844 11.5948 60.5966 10.4657 59.6434 9.39383C59.1811 8.87427 58.6124 8.45291 58.1501 7.93335C57.6715 7.39742 57.2092 6.82873 56.8328 6.21507C56.6119 5.85506 56.8042 5.46643 57.1765 5.21278C57.9783 4.66458 58.7515 4.06319 59.5861 3.56817C61.3534 2.51677 63.0512 1.32219 65.1745 1.01945C65.604 0.958084 66.0173 0.638958 66.3977 0.381221C67.2241 -0.179253 67.6537 -0.154669 68.2428 0.675815C68.8728 1.55948 69.4701 2.47176 70.0183 3.40861C70.9756 5.05322 71.8265 6.75919 72.8248 8.37516C73.9416 10.1834 74.5226 12.2003 75.263 14.1558C76.1058 16.3855 76.4413 18.7255 76.7931 21.2129C77.4354 21.2661 78.0736 21.3479 78.7159 21.3643C80.4669 21.4134 82.226 21.3479 83.9688 21.4952C85.5275 21.6261 87.0657 21.5238 88.6162 21.4952C90.2854 21.4666 91.9586 21.7406 93.6278 21.7038C96.0456 21.6547 98.3079 22.4198 100.615 22.9025C102.694 23.3362 104.465 24.3098 105.737 26.2326C106.748 27.7627 108.204 29.0023 109.46 30.3728C110.139 31.1173 110.868 31.8333 111.473 32.6392C112.672 34.2348 114.014 35.6543 115.634 36.8448C117.704 38.3667 119.176 40.4327 120.383 42.6664C121.472 44.6833 122.457 46.7534 123.447 48.8193C124.237 50.4639 124.446 52.2517 124.532 54.0436C124.687 57.3451 124.834 60.6507 124.904 63.9562C124.965 66.9509 124.904 69.9496 124.916 72.9443C124.924 75.0062 125.014 77.0681 124.998 79.1341C124.978 81.7769 124.978 84.4279 124.781 87.0625C124.667 88.5967 124.213 90.1104 123.869 91.6241C123.664 92.5323 123.357 93.4159 123.132 94.3242C122.404 97.2738 120.661 99.5566 118.46 101.549C118.117 101.86 117.695 102.114 117.417 102.478C115.994 104.323 113.924 105.129 111.882 105.98C111.203 106.262 110.454 106.417 109.828 106.786C109.051 107.244 108.221 107.379 107.374 107.379C104.727 107.379 102.08 107.326 99.4371 107.289C99.0852 107.285 98.7334 107.24 98.3857 107.272C94.5237 107.645 90.6904 107.391 86.8571 106.896C82.5737 106.348 78.2822 105.886 73.9907 105.411C72.9884 105.3 71.9656 105.345 70.9674 105.215C66.8968 104.675 62.8221 104.72 58.7352 104.949C57.606 105.014 56.4728 105.002 55.3519 105.12C53.1509 105.358 50.954 105.656 48.7612 105.939C48.4134 105.984 48.078 106.115 47.7302 106.135C44.3878 106.303 41.0454 106.483 37.703 106.601C36.4225 106.646 35.1339 106.458 33.8574 106.524C32.2578 106.606 30.6746 106.712 29.0995 106.303C28.6536 106.184 28.175 106.176 27.7086 106.151C24.4644 106 21.302 105.403 18.1887 104.49C16.8837 104.11 15.5704 103.754 14.2449 103.451C11.8394 102.907 9.94114 101.561 8.19426 99.8962C5.71917 97.5397 3.86183 94.721 2.05767 91.8654C1.07173 90.3026 0.494886 88.564 0.302606 86.7189C0.130782 85.0988 -0.106491 83.4788 0.0939709 81.8423C0.143064 81.4578 0.151241 81.0569 0.102148 80.6764C-0.159679 78.6881 0.155335 76.7203 0.233065 74.7403C0.318977 72.4984 0.912177 70.3628 1.55856 68.2437C2.33996 65.6827 3.22362 63.1503 4.00092 60.5893C4.81914 57.9056 6.32874 55.6228 7.95289 53.3891C8.59109 52.5095 9.15156 51.5685 9.81841 50.7135C11.9294 48.0216 14.1631 45.4197 16.1841 42.6582C18.1314 39.995 19.8497 37.1639 21.7152 34.4393C23.1225 32.3896 24.3907 30.2378 26.2972 28.5686C27.9622 27.1081 29.5046 25.5003 31.2269 24.1134C32.4542 23.1234 33.567 21.8961 35.0889 21.3479C36.6516 20.7833 38.2717 20.3661 39.8877 19.9611C40.9022 19.7074 41.9618 19.646 42.9846 19.4128C44.9115 18.9751 46.8466 19.0201 48.7939 19.1756C50.0744 19.2778 51.359 19.4415 52.6395 19.4333C55.3805 19.4088 58.0601 19.8547 60.752 20.2924C62.6626 20.6033 64.6222 20.632 66.5614 20.7752C66.7004 20.7874 66.8518 20.7056 67.0523 20.6565L67.0564 20.6688ZM89.3035 26.0158C90.1627 27.8854 90.4818 29.8082 90.8909 31.6983C91.0095 32.2465 90.6986 32.6965 90.314 32.6638C89.8517 32.6228 89.5081 32.361 89.4304 31.8742C89.2831 30.9537 89.1972 30.021 89.0131 29.1087C88.5058 26.6254 87.6099 25.709 85.5521 25.5781C84.2347 25.4963 82.9133 25.353 81.6083 25.1362C79.6487 24.8089 77.6931 24.5267 75.6967 24.5144C73.9498 24.5021 72.1988 24.3712 70.452 24.2648C69.7565 24.2239 69.0692 24.0807 68.3778 24.0275C67.0196 23.9294 65.6572 23.9171 64.3072 23.7657C62.188 23.5243 60.0852 23.1234 57.962 22.9148C55.5237 22.6775 53.0731 22.5916 50.6267 22.4034C49.6448 22.3298 49.0066 22.7021 48.5689 23.5775C47.6811 25.3571 46.8875 27.1695 46.4415 29.1168C46.327 29.6078 46.192 30.0987 46.0242 30.5773C45.8279 31.1296 45.3329 31.2237 44.9688 30.7655C44.8174 30.5732 44.7274 30.2664 44.7397 30.021C44.7642 29.5996 44.8419 29.1659 44.9851 28.7691C45.652 26.9076 46.3434 25.0585 47.0347 23.2093C47.3088 22.477 47.0961 22.207 46.3025 22.2684C45.1283 22.3543 44.5228 23.2257 44.0155 24.0684C42.6164 26.4044 41.2827 28.7855 40.6445 31.4692C40.5382 31.9151 40.3131 32.1851 39.8509 32.1442C39.3927 32.0992 39.1717 31.7883 39.184 31.3383C39.1922 31.0273 39.1963 30.7041 39.2781 30.4137C39.4704 29.7427 39.6463 29.0514 39.9531 28.4295C40.7877 26.7195 41.6836 25.0421 42.5509 23.3484C42.6614 23.1316 42.735 22.8984 42.9191 22.4402C41.3932 22.8248 40.0677 23.0866 38.7872 23.4957C35.8907 24.4203 33.4688 26.2244 30.9937 27.9018C29.1486 29.1536 27.5572 30.7287 26.2522 32.5206C24.3335 35.1552 22.5457 37.8881 20.7292 40.6004C18.8024 43.4764 16.8755 46.3525 14.9977 49.2612C13.8604 51.0244 12.6781 52.7795 11.7658 54.6614C10.5957 57.0669 9.6834 59.5993 8.64018 62.0703C7.0774 65.7686 5.92372 69.6019 4.93368 73.4843C4.09093 76.8063 4.12366 80.2059 4.28321 83.5892C4.36094 85.2502 4.7414 86.903 5.08505 88.5394C5.49007 90.4581 6.48829 92.1682 7.45787 93.8169C8.39063 95.4083 9.66294 96.8279 10.9516 98.1698C12.8703 100.166 15.3127 101.414 17.9023 102.314C19.9315 103.022 22.0752 103.214 24.2189 103.333C24.7998 103.365 25.3849 103.398 25.9658 103.447C27.9009 103.607 29.8319 103.873 31.7669 103.926C38.6358 104.114 45.4433 103.361 52.2427 102.486C52.975 102.392 53.7154 102.334 54.4518 102.31C58.0765 102.187 61.6889 102.437 65.2972 102.744C66.4223 102.838 67.5432 102.944 68.6683 103.046C69.4415 103.116 70.2147 103.243 70.9879 103.247C74.4162 103.267 77.8404 103.239 81.2687 103.263C82.8642 103.275 84.4597 103.329 86.0552 103.435C89.0458 103.635 92.0323 103.975 95.0228 104.098C98.2139 104.225 101.409 104.167 104.604 104.184C104.993 104.184 105.385 104.151 105.766 104.085C108.851 103.566 111.804 102.686 114.648 101.34C116.947 100.252 118.841 98.8284 119.941 96.4883C120.24 95.8542 120.518 95.2119 120.764 94.5574C121.492 92.6305 122.294 90.7199 122.523 88.6499C122.862 85.5938 123.182 82.5337 123.038 79.4532C122.944 77.3954 122.822 75.3376 122.666 73.2839C122.523 71.3815 122.282 69.4914 122.142 67.5891C121.877 63.989 121.827 60.3807 121.152 56.7969C120.551 53.61 119.373 50.6931 117.978 47.8334C116.194 44.1719 113.735 40.9564 111.047 37.9126C109.943 36.6608 108.83 35.4089 107.681 34.1979C106.776 33.2447 105.811 32.3447 104.862 31.4364C104.355 30.9537 103.839 30.4791 103.291 30.0455C102.444 29.3704 101.597 28.6873 100.697 28.09C98.7089 26.7808 96.3934 26.3349 94.1433 25.7212C93.6483 25.5862 93.1409 25.5044 92.4332 25.353C92.9282 26.2572 93.3701 26.8995 93.6482 27.6072C94.0246 28.5809 94.2946 29.5996 94.5687 30.61C94.6465 30.8923 94.6833 31.2728 94.5524 31.506C94.4092 31.7678 94.0737 32.0379 93.7914 32.0747C93.5787 32.1033 93.2187 31.8251 93.1 31.5919C92.9323 31.2605 92.9037 30.8473 92.8628 30.4669C92.6828 28.7773 91.9832 27.3536 90.7109 26.2163C90.314 25.8603 89.8967 25.619 89.2995 26.0199L89.3035 26.0158ZM60.4984 7.18055C61.0671 7.78194 61.5785 8.41199 62.1798 8.94382C64.7736 11.2225 66.9459 13.8449 68.7214 16.7986C69.3637 17.8623 69.9651 18.9547 70.6156 20.0102C71.0083 20.6443 71.442 21.2211 72.3707 21.0492C72.7757 20.9756 73.2175 21.1434 73.643 21.172C74.4448 21.2211 74.6289 21.0329 74.4939 20.2515C74.2525 18.836 74.0153 17.4205 73.7084 16.0214C73.1521 13.4645 72.3175 11.0139 70.8038 8.83745C70.5583 8.48562 70.3088 8.12972 70.1451 7.73698C69.5151 6.21511 68.3819 5.09823 67.1914 4.03046C66.4223 3.33907 66.2423 3.28999 65.3422 3.83819C63.8204 4.77505 62.3394 5.77736 60.8462 6.75921C60.7275 6.83694 60.6539 6.98418 60.4943 7.18055H60.4984Z" fill="black"/>
<path d="M60.4983 7.18059C60.6578 6.98831 60.7315 6.83698 60.8501 6.75925C62.3434 5.7774 63.8243 4.77099 65.3462 3.83823C66.2421 3.28594 66.4262 3.33911 67.1953 4.0305C68.3858 5.09826 69.5191 6.21515 70.1491 7.73702C70.3127 8.12976 70.5623 8.48566 70.8078 8.83749C72.3214 11.0139 73.156 13.4645 73.7124 16.0214C74.0193 17.4246 74.2524 18.8401 74.4979 20.2515C74.6329 21.037 74.4488 21.2252 73.647 21.172C73.2215 21.1434 72.7797 20.9756 72.3746 21.0493C71.446 21.217 71.0082 20.6443 70.6196 20.0102C69.965 18.9506 69.3636 17.8623 68.7254 16.7987C66.9499 13.8449 64.7734 11.2267 62.1838 8.94386C61.5824 8.41612 61.071 7.78198 60.5024 7.18059H60.4983Z" fill="#8B9463"/>
<path d="M105.5 84.1906C105.5 84.7429 105.476 85.242 105.504 85.737C105.619 87.758 105.729 89.7749 105.876 91.7918C105.946 92.7409 105.647 93.2728 104.796 93.42C102.69 93.7841 100.591 94.2178 98.4675 94.451C96.3443 94.6842 94.2006 94.721 92.065 94.8274C91.2877 94.8642 90.5063 94.8478 89.729 94.856C88.5999 94.8642 88.3258 94.6801 88.1622 93.5919C88.0026 92.5159 87.9658 91.4236 87.8349 90.3435C87.6917 89.153 87.5035 87.9707 87.3358 86.768H82.267C82.2383 88.4208 82.2015 89.9631 82.1851 91.5095C82.1769 92.25 82.2342 92.9905 82.2261 93.7269C82.2097 95.0237 81.0437 96.2183 79.7632 96.247C76.5354 96.3247 73.3116 96.386 70.0838 96.4678C69.1878 96.4883 68.296 96.5783 67.4001 96.5865C65.4936 96.6029 63.5913 96.562 61.6849 96.5906C60.0893 96.6151 58.4938 96.6765 56.9065 96.7992C56.2969 96.8483 55.9001 96.6847 55.7119 96.1365C55.5237 95.5924 55.3642 95.0278 55.2701 94.4633C55.0492 93.1664 54.8733 91.8613 54.6605 90.4499C53.5764 90.3804 52.5782 90.3067 51.5759 90.2577C50.9745 90.229 50.7536 90.6872 50.6636 91.1495C50.4958 92.025 50.3485 92.9128 50.2994 93.8005C50.2299 95.0769 49.5999 95.9483 48.3194 96.0669C47.403 96.1488 46.458 96.0301 45.5334 95.9442C43.4428 95.7438 41.3605 95.4124 39.2659 95.3183C37.4044 95.2365 35.5348 95.4042 33.6693 95.4615C32.6997 95.4942 31.7261 95.5228 30.7565 95.576C30.0365 95.6128 29.5169 95.2896 29.2919 94.6473C29.0423 93.9273 28.8255 93.1705 28.7682 92.4136C28.6823 91.2559 28.7437 90.0899 28.7437 88.8994C27.7332 88.6785 26.87 88.5108 26.019 88.298C25.1885 88.0894 24.3662 87.8562 23.5562 87.578C23.0407 87.4021 22.7053 87.5248 22.558 88.028C22.3616 88.6949 22.1366 89.3658 22.0589 90.0531C21.9525 90.9777 21.973 91.9145 21.9443 92.8473C21.9034 94.361 20.7007 95.0483 19.367 94.3119C18.3851 93.7678 17.3583 93.2891 16.4337 92.6591C15.0427 91.7141 14.29 90.4254 14.2859 88.6417C14.2777 86.6494 14.7318 84.837 15.5337 83.0246C16.4296 81.0037 17.0842 78.8763 17.8696 76.8063C18.606 74.8712 19.007 72.8502 19.4733 70.8456C19.8988 69.0046 20.6025 67.2127 21.8421 65.8259C23.1307 64.3817 24.7263 63.228 26.8904 63.3099C28.8378 63.3876 30.7933 63.3508 32.6179 64.1935C32.7897 64.2754 32.9902 64.3326 33.1825 64.3367C35.0603 64.3817 36.349 65.4904 37.5763 66.7259C38.104 67.2577 38.1081 67.8714 38.014 68.5628C37.8463 69.8228 37.7604 71.0911 37.6417 72.3798C37.8995 72.4738 38.0713 72.5884 38.2513 72.5965C42.101 72.7684 45.9507 72.932 49.8003 73.0916C49.9926 73.0998 50.189 73.0834 50.3854 73.0793C50.9049 73.067 51.1708 72.7725 51.2199 72.2856C51.2772 71.7047 51.2977 71.1197 51.3468 70.5388C51.4327 69.4956 51.9072 68.9882 52.885 68.6078C53.8218 68.2437 54.771 68.211 55.7528 68.2273C57.3852 68.2519 59.0216 68.1987 60.6539 68.2068C61.5498 68.2109 62.4417 68.2559 63.3376 68.3173C63.7549 68.346 64.3236 68.305 64.5445 68.5464C64.97 69.0169 65.3341 69.6346 65.4813 70.2483C65.78 71.4797 65.78 71.6434 67.0073 71.5574C68.6274 71.4388 70.1738 71.8111 71.7448 72.0197C72.0148 72.0566 72.2889 72.0729 72.5589 72.0688C73.9089 72.0525 74.1053 71.8724 74.2321 70.5633C74.2608 70.2524 74.2649 69.9414 74.3017 69.6305C74.4408 68.4278 74.8294 67.9737 76.0117 67.7568C76.5436 67.6587 77.1 67.6096 77.6359 67.6587C81.3792 68.0187 85.1021 67.7241 88.829 67.4213C90.0972 67.3191 91.3818 67.3068 92.5764 66.7014C93.2146 66.3782 93.6769 66.6359 93.9633 67.3436C94.2374 68.0268 94.4215 68.7469 94.6179 69.4546C94.8674 70.3547 95.0515 71.2711 95.3256 72.1588C95.567 72.9402 95.8002 73.0466 96.6307 72.9525C96.8638 72.9279 97.0929 72.8993 97.3261 72.8543C98.1116 72.7111 98.3448 72.5066 98.3285 71.6965C98.3039 70.416 98.1771 69.1396 98.1157 67.8591C98.0871 67.2373 98.1034 66.6154 98.1075 65.9936C98.1075 65.3472 98.4266 64.9381 98.9789 64.5945C100.022 63.944 101.061 63.2689 102.031 62.5121C103.937 61.0229 106.016 60.9084 108.204 61.6284C109.423 62.0294 110.16 62.9867 110.757 64.0708C111.076 64.6517 111.399 65.2286 111.763 65.7809C112.88 67.4746 113.506 69.3237 113.576 71.357C113.654 73.6112 113.694 75.8694 113.805 78.1236C113.895 79.9482 114.104 81.7687 114.181 83.5933C114.271 85.7247 113.588 87.6557 112.443 89.4272C111.465 90.9449 109.939 91.5545 108.257 91.8777C107.685 91.9881 107.345 91.6118 107.243 91.129C107.108 90.4908 107.055 89.824 107.034 89.1694C106.993 87.8071 107.026 86.4448 106.985 85.0825C106.952 84.0188 106.821 83.9452 105.496 84.1824L105.5 84.1906ZM35.2485 67.4336C34.1398 67.1513 33.1006 66.9672 32.1229 66.6154C30.7319 66.1122 29.3123 66.0468 27.8641 66.0958C26.6286 66.1368 25.6386 66.685 24.7999 67.5605C23.7321 68.6773 23.3844 70.1215 22.9466 71.537C22.6398 72.5352 22.2512 73.5088 21.8707 74.4784C21.5434 75.3089 21.1343 76.1108 20.8275 76.9453C19.5838 80.3368 18.4015 83.7529 16.6301 86.9316C16.3928 87.3612 16.3846 87.983 16.4419 88.4944C16.4991 89.0221 16.7446 89.5376 16.9533 90.0408C17.3378 90.9654 18.7165 91.6404 19.772 91.4154C19.772 89.5703 19.772 87.713 19.772 85.8557C19.772 85.467 19.7024 85.0743 19.7352 84.6938C19.8456 83.5565 20.3857 83.2579 21.3921 83.7815C24.5626 85.4384 27.9214 86.4939 31.4683 86.948C32.5565 87.0871 32.8879 87.4225 32.9615 88.5149C33.0352 89.5622 33.1252 90.6135 33.0884 91.6609C33.0515 92.6836 33.4075 92.9332 34.3402 93.15C34.7166 93.24 35.1094 93.3259 35.4939 93.3218C36.8153 93.3218 38.1408 93.2564 39.4622 93.2646C40.8573 93.2727 42.2523 93.3178 43.6515 93.3709C44.7397 93.4118 45.8279 93.5469 46.9121 93.5305C47.718 93.5223 47.8653 93.33 47.9307 92.5609C48.0085 91.6691 48.0821 90.7772 48.078 89.8853C48.0698 88.3839 49.3667 87.3407 50.8313 87.6189C52.3122 87.8971 53.7932 88.3308 55.3274 87.8685C55.9042 87.6926 56.346 87.9953 56.5956 88.4658C57.1765 89.5622 57.7247 90.675 58.2238 91.8082C58.5184 92.475 58.6984 93.1909 58.9357 93.915C59.267 93.9764 59.5698 94.0705 59.8725 94.0828C61.3126 94.136 62.7526 94.2137 64.1886 94.1932C67.3019 94.1564 70.4152 94.0419 73.5326 94.0092C75.2631 93.9928 76.9363 93.6614 78.6055 93.2809C79.5709 93.06 79.5832 93.0027 79.5914 92.025C79.6119 90.1963 79.7182 88.3676 79.6528 86.543C79.616 85.4507 80.1437 84.7184 80.7287 83.9288C81.0437 83.5033 81.3751 83.3356 81.8947 83.3519C84.0302 83.4133 86.1698 83.5892 88.3054 83.2824C88.3831 83.2701 88.4608 83.2824 88.5386 83.2783C89.0254 83.2456 89.4181 83.4501 89.549 83.9001C89.7413 84.5629 89.8968 85.2461 89.954 85.9334C90.0768 87.4062 90.0809 88.8912 90.2159 90.3599C90.3754 92.1109 90.4123 92.1068 92.11 92.0209C92.2287 92.0168 92.3432 92.0209 92.4619 92.0086C95.8697 91.7018 99.2817 91.4031 102.69 91.08C103.455 91.0063 103.667 90.7322 103.72 89.9385C103.733 89.7463 103.733 89.5499 103.725 89.3535C103.651 87.3694 103.573 85.3893 103.504 83.4051C103.467 82.3946 103.528 82.2474 104.51 82.0264C105.377 81.8342 106.273 81.7441 107.161 81.7032C108.114 81.6623 108.335 81.826 108.532 82.7628C108.851 84.2806 109.104 85.8148 109.362 87.3448C109.513 88.2285 110.037 88.5149 110.704 87.9217C111.207 87.4717 111.608 86.8498 111.89 86.228C112.696 84.4524 112.443 82.5542 112.291 80.705C112.054 77.7227 111.714 74.7484 111.399 71.7742C111.346 71.2792 111.183 70.7965 111.084 70.3056C110.688 68.2682 109.305 66.7832 108.147 65.1917C107.484 64.2835 106.437 63.6985 105.316 63.8253C103.986 63.9767 102.845 64.7131 101.884 65.6745C101.172 66.3904 101.172 67.3068 101.217 68.1864C101.282 69.5447 101.434 70.8988 101.601 72.2488C101.699 73.0097 101.483 73.5661 100.787 73.877C99.2326 74.5725 97.6902 75.3089 96.0906 75.8981C94.892 76.3399 93.4724 75.2639 93.3333 73.9916C93.2146 72.8707 93.0837 71.7497 92.8874 70.6411C92.6951 69.561 92.5151 69.3933 91.4268 69.4015C89.4468 69.4219 87.4708 69.5283 85.4907 69.5978C83.8993 69.6551 82.312 69.7165 80.7205 69.7533C79.9432 69.7737 79.1618 69.7328 78.3846 69.7533C77.5541 69.7737 77.3413 69.9496 77.3659 70.8088C77.3863 71.6188 77.5254 72.4329 77.6441 73.2389C77.7995 74.2903 77.0877 74.998 76.0158 74.8998C72.923 74.6216 69.8465 74.0489 66.7169 74.3761C66.14 74.4375 65.5509 74.4334 64.9741 74.4866C63.6977 74.6052 63.3376 74.2903 63.3376 73.0343C63.3376 72.8011 63.3376 72.5679 63.309 72.3388C63.1904 71.5001 62.9858 71.2874 62.1553 71.4347C60.1957 71.7865 58.2852 71.5206 56.3747 71.1361C56.031 71.0665 55.6587 70.956 55.3396 71.0297C55.0492 71.0951 54.7587 71.3447 54.5582 71.5861C54.4273 71.7415 54.4723 72.032 54.4191 72.2611C54.1941 73.2061 54.0264 74.1716 53.7073 75.088C53.4005 75.9758 52.7254 76.2662 51.9686 75.8694C50.7617 75.2394 49.4853 75.3376 48.2007 75.3335C47.4684 75.3335 46.7361 75.2803 46.0079 75.2353C45.5825 75.2067 45.157 75.1125 44.7315 75.0962C42.281 75.0184 39.8304 74.953 37.3758 74.8875C36.5821 74.8671 35.8212 74.8344 35.318 74.0489C35.2116 73.8812 34.8393 73.8484 34.5816 73.8116C33.9966 73.7298 33.7798 73.3739 33.837 72.8339C33.8698 72.527 33.9475 72.2243 34.0457 71.9297C34.3934 70.8578 34.778 69.7983 35.1053 68.7223C35.2239 68.3337 35.2035 67.9041 35.2526 67.4336H35.2485Z" fill="black"/>
<path d="M69.6296 52.4031C68.9587 53.4709 68.2959 54.6942 67.4736 55.8028C65.8822 57.9466 63.9839 59.722 61.4843 60.843C59.5042 61.7308 57.4383 62.1808 55.3273 62.5326C54.9468 62.594 54.55 62.5531 54.1654 62.5572C50.3812 62.5858 46.7974 61.7349 43.5941 59.7343C41.5895 58.4866 40.1044 56.7192 39.5562 54.2687C38.6357 50.1449 38.9548 46.152 40.6035 42.2819C41.3808 40.4573 42.3382 38.7349 43.5818 37.1599C45.0423 35.3107 47.0592 34.4761 49.1866 33.8011C50.9703 33.2325 52.8154 32.9665 54.6604 32.7006C56.1005 32.492 57.4219 32.9706 58.7719 33.3347C59.7824 33.6088 60.7929 33.9156 61.8198 34.0834C65.4567 34.6766 68.2509 36.3212 69.5314 39.9786C69.6214 40.2404 69.7973 40.4736 69.9937 40.8295C70.6401 40.0031 71.1678 39.2954 71.7324 38.6163C72.8983 37.2049 74.1052 35.818 75.8071 35.0243C77.3903 34.288 79.0472 33.9934 80.7941 34.3493C81.3996 34.472 82.0214 34.517 82.6432 34.5539C85.8015 34.7421 88.5753 35.7157 90.9726 37.9249C92.2654 39.1154 93.0673 40.4205 93.6195 42.0446C94.6628 45.1006 95.3542 48.2384 95.1537 51.4295C95.0228 53.5323 94.9164 55.8192 93.3618 57.5742C92.6172 58.4129 91.8399 59.2229 91.0585 60.033C90.2362 60.8839 89.1603 61.2317 88.0352 61.4117C86.1206 61.7226 84.2101 62.0621 82.2832 62.2667C80.4341 62.463 78.6463 62.0785 76.9485 61.3135C76.2039 60.978 75.4716 60.6057 74.7066 60.3193C73.1356 59.7302 71.9942 58.6379 71.1801 57.2265C70.6565 56.3265 70.2433 55.3446 69.9037 54.3587C69.691 53.7409 69.7114 53.0495 69.6296 52.4072V52.4031ZM55.3395 59.493C56.0105 59.493 56.7878 59.4766 57.5651 59.493C59.6147 59.5462 61.3329 58.732 62.9039 57.5047C64.9944 55.8764 66.7086 53.9209 67.7723 51.4949C68.2959 50.3004 68.705 49.0035 68.8768 47.7189C69.1755 45.477 68.6314 43.3169 67.7436 41.2509C67.625 40.9768 67.4122 40.7396 67.2077 40.5146C66.8763 40.1423 66.4836 39.8232 66.1726 39.4386C64.7162 37.6385 62.8589 36.5298 60.5679 36.1821C59.3774 36.0021 58.1746 35.8999 56.9882 35.7117C53.0854 35.0857 49.9884 36.403 47.5543 39.4754C46.7115 40.5391 45.7583 41.5128 44.8255 42.4946C43.9173 43.4478 42.915 44.3151 42.0681 45.3175C41.6918 45.7593 41.4218 46.4261 41.3931 47.0071C41.3072 48.7867 41.2499 50.5826 41.3931 52.3541C41.5077 53.7614 42.0927 55.1524 43.1809 56.0565C44.5801 57.2142 46.1633 58.1633 47.9715 58.6297C50.3525 59.2393 52.7499 59.7221 55.3395 59.493ZM83.4737 59.4725C83.7724 59.4725 84.2797 59.4602 84.7829 59.4725C87.5771 59.5461 89.729 57.7911 90.6535 55.4469C91.4758 53.3728 91.7458 51.1472 91.6149 48.9135C91.4881 46.7329 90.944 44.6465 90.1094 42.6051C89.5571 41.2509 88.7717 40.1913 87.6998 39.2545C86.2434 37.9822 84.5374 37.344 82.6678 36.9594C81.2441 36.6689 79.8981 36.4398 78.454 37.0044C76.7521 37.6712 75.3203 38.6735 74.4407 40.2159C73.602 41.6846 72.8411 43.2351 72.5015 44.937C72.3665 45.6202 72.1211 46.2829 71.9983 46.9661C71.9083 47.453 71.8428 47.9766 71.9247 48.4553C72.166 49.8299 72.4524 51.2004 72.7879 52.5545C73.0047 53.4218 73.242 54.3055 73.6429 55.0951C74.7598 57.2961 76.6621 58.6175 78.9777 59.2802C80.3604 59.6771 81.8169 59.7548 83.4696 59.4643L83.4737 59.4725Z" fill="black"/>
<path d="M11.774 63.9439C12.3918 63.9971 12.6741 64.2713 12.6372 64.7826C12.5963 65.3267 12.1259 65.8054 11.6963 65.744C11.2463 65.6786 10.8085 65.1426 10.8208 64.6681C10.8331 64.1649 11.1972 63.8908 11.774 63.9399V63.9439Z" fill="black"/>
<path d="M115.924 48.038C115.912 48.6558 115.666 48.9257 115.122 48.9176C114.652 48.9094 114.243 48.4389 114.243 47.8989C114.243 47.4366 114.684 46.962 115.098 46.9784C115.568 46.9989 115.936 47.4735 115.924 48.038Z" fill="black"/>
<path d="M13.8031 60.7816C14.4781 60.8552 14.7522 61.1335 14.7236 61.7185C14.699 62.2012 14.3186 62.459 13.7254 62.3976C13.1731 62.3403 12.9153 62.0212 12.9603 61.4525C13.0053 60.9125 13.2467 60.7202 13.8072 60.7816H13.8031Z" fill="black"/>
<path d="M117.785 50.7872C117.761 51.2945 117.36 51.6708 116.881 51.6299C116.456 51.5972 116.112 51.139 116.124 50.6276C116.133 50.2103 116.538 49.8298 116.963 49.8339C117.397 49.8339 117.806 50.3126 117.785 50.7913V50.7872Z" fill="black"/>
<path d="M35.2484 67.4337C35.1993 67.9041 35.2198 68.3337 35.1011 68.7224C34.7779 69.7983 34.3934 70.8579 34.0415 71.9297C33.9474 72.2243 33.8656 72.5271 33.8329 72.8339C33.7756 73.3739 33.9924 73.7298 34.5775 73.8117C34.8352 73.8485 35.2034 73.8771 35.3138 74.0489C35.817 74.8344 36.578 74.8671 37.3717 74.8876C39.8222 74.953 42.2727 75.0185 44.7274 75.0962C45.1528 75.1085 45.5783 75.2067 46.0038 75.2353C46.7361 75.2844 47.4643 75.3335 48.1966 75.3335C49.4771 75.3376 50.7576 75.2394 51.9645 75.8694C52.7213 76.2662 53.3963 75.9758 53.7032 75.0881C54.0223 74.1758 54.19 73.2062 54.415 72.2611C54.4682 72.0361 54.4232 71.7415 54.5541 71.5861C54.7546 71.3447 55.045 71.0952 55.3355 71.0297C55.6587 70.9561 56.031 71.0665 56.3705 71.1361C58.2851 71.5247 60.1957 71.7866 62.1512 71.4347C62.9776 71.2874 63.1862 71.5002 63.3049 72.3388C63.3376 72.5679 63.3335 72.8011 63.3335 73.0343C63.3335 74.2944 63.6894 74.6053 64.9699 74.4866C65.5508 74.4335 66.1359 74.4334 66.7127 74.3762C69.8424 74.0489 72.9189 74.6216 76.0117 74.8998C77.0836 74.998 77.7954 74.2903 77.6399 73.2389C77.5213 72.433 77.3863 71.6229 77.3617 70.8088C77.3372 69.9537 77.5499 69.7738 78.3804 69.7533C79.1577 69.7369 79.9391 69.7738 80.7164 69.7533C82.3078 69.7124 83.8951 69.651 85.4866 69.5978C87.4666 69.5283 89.4426 69.4219 91.4227 69.4015C92.5109 69.3892 92.6868 69.561 92.8832 70.6411C93.0837 71.7498 93.2105 72.8707 93.3291 73.9916C93.4641 75.264 94.8837 76.3399 96.0865 75.8981C97.682 75.309 99.2243 74.5726 100.783 73.8771C101.479 73.5662 101.691 73.0098 101.597 72.2488C101.425 70.8988 101.278 69.5447 101.213 68.1864C101.168 67.3028 101.168 66.3864 101.879 65.6745C102.841 64.709 103.982 63.9767 105.312 63.8254C106.433 63.6985 107.48 64.2836 108.143 65.1918C109.305 66.7832 110.683 68.2682 111.08 70.3056C111.174 70.7965 111.342 71.2792 111.395 71.7743C111.71 74.7485 112.05 77.7227 112.287 80.7051C112.434 82.5583 112.688 84.4525 111.886 86.228C111.604 86.8498 111.203 87.4717 110.7 87.9217C110.033 88.5149 109.509 88.2285 109.358 87.3448C109.096 85.8148 108.847 84.2806 108.527 82.7628C108.327 81.8219 108.11 81.6583 107.157 81.7033C106.269 81.7442 105.373 81.8342 104.506 82.0265C103.52 82.2433 103.463 82.3947 103.5 83.4052C103.569 85.3893 103.651 87.3694 103.72 89.3536C103.729 89.5499 103.729 89.7422 103.716 89.9386C103.663 90.7363 103.45 91.0104 102.685 91.08C99.2775 91.4032 95.8697 91.7018 92.4577 92.0087C92.3432 92.0209 92.2245 92.0168 92.1059 92.0209C90.4081 92.1068 90.3713 92.1109 90.2117 90.36C90.0767 88.8872 90.0727 87.4062 89.9499 85.9334C89.8927 85.2502 89.7372 84.5629 89.5449 83.9002C89.414 83.4501 89.0212 83.2456 88.5344 83.2783C88.4567 83.2824 88.379 83.2742 88.3012 83.2824C86.1657 83.5892 84.0261 83.4133 81.8905 83.352C81.371 83.3356 81.0396 83.5034 80.7246 83.9288C80.1396 84.7184 79.6118 85.4507 79.6486 86.543C79.7141 88.3676 79.6077 90.1963 79.5873 92.025C79.575 93.0028 79.5668 93.0601 78.6013 93.281C76.9322 93.6614 75.2589 93.9928 73.5284 94.0092C70.4151 94.0419 67.3018 94.1565 64.1844 94.1933C62.7444 94.2096 61.3043 94.136 59.8684 94.0828C59.5656 94.0705 59.2629 93.9764 58.9315 93.9151C58.6902 93.1909 58.5142 92.475 58.2197 91.8082C57.7206 90.675 57.1724 89.5581 56.5914 88.4658C56.3419 87.9953 55.9001 87.6926 55.3232 87.8685C53.7932 88.3308 52.3081 87.8972 50.8272 87.619C49.3585 87.3408 48.0616 88.3881 48.0739 89.8854C48.0779 90.7772 48.0043 91.6732 47.9266 92.5609C47.8611 93.3301 47.7139 93.5223 46.9079 93.5305C45.8238 93.5428 44.7355 93.4119 43.6473 93.371C42.2523 93.3178 40.8572 93.2728 39.4581 93.2646C38.1367 93.2605 36.8112 93.3219 35.4898 93.3219C35.1052 93.3219 34.7166 93.2359 34.3361 93.15C33.4033 92.9332 33.0474 92.6836 33.0842 91.6609C33.1252 90.6136 33.031 89.5622 32.9574 88.5149C32.8838 87.4185 32.5524 87.0871 31.4642 86.948C27.9172 86.4939 24.5585 85.4384 21.3879 83.7816C20.3815 83.2579 19.8415 83.5565 19.731 84.6939C19.6942 85.0784 19.7638 85.467 19.7678 85.8557C19.7719 87.713 19.7678 89.5745 19.7678 91.4154C18.7164 91.6404 17.3377 90.9654 16.9491 90.0408C16.7405 89.5376 16.495 89.0262 16.4377 88.4944C16.3804 87.983 16.3845 87.3612 16.6259 86.9316C18.3973 83.757 19.5756 80.3409 20.8233 76.9454C21.1302 76.1067 21.5393 75.3089 21.8665 74.4784C22.247 73.5048 22.6357 72.5311 22.9425 71.537C23.3802 70.1215 23.728 68.6774 24.7957 67.5605C25.6344 66.685 26.6245 66.1368 27.86 66.0959C29.3041 66.0468 30.7237 66.1122 32.1187 66.6154C33.0965 66.9714 34.1356 67.1514 35.2443 67.4337H35.2484Z" fill="#ED1C24"/>
<path d="M55.3395 59.493C52.7499 59.7221 50.3525 59.2352 47.9715 58.6297C46.1592 58.1674 44.576 57.2183 43.1809 56.0565C42.0927 55.1524 41.5077 53.7614 41.3931 52.3541C41.2499 50.5826 41.3072 48.7867 41.3931 47.0071C41.4218 46.4261 41.6918 45.7634 42.0681 45.3175C42.9191 44.3192 43.9214 43.4478 44.8255 42.4946C45.7624 41.5128 46.7156 40.535 47.5543 39.4754C49.9884 36.3989 53.0854 35.0857 56.9882 35.7117C58.1746 35.9039 59.3774 36.0021 60.5679 36.1821C62.8589 36.5298 64.7162 37.6385 66.1726 39.4386C66.4836 39.8232 66.8763 40.1464 67.2077 40.5146C67.4081 40.7396 67.625 40.9768 67.7436 41.2509C68.6314 43.3169 69.1755 45.477 68.8768 47.7189C68.705 49.0076 68.2959 50.3044 67.7722 51.4949C66.7045 53.9209 64.9903 55.8764 62.9039 57.5047C61.3329 58.7279 59.6147 59.5462 57.5651 59.493C56.7878 59.4725 56.0105 59.493 55.3395 59.493ZM53.9772 54.6409C55.0245 54.6614 55.8632 54.1991 56.1332 53.5159C56.4564 52.7059 56.0841 52.1004 55.5073 51.5645C55.3395 51.405 55.1841 51.229 55.0368 51.0531C54.6727 50.6195 54.2513 50.5949 53.8013 50.8813C53.5108 51.0654 53.1958 51.2536 52.9749 51.5113C52.4103 52.17 52.2385 52.9227 52.5535 53.7695C52.8399 54.5387 53.4413 54.6614 53.9772 54.6409Z" fill="white"/>
<path d="M83.4738 59.4766C81.821 59.7629 80.3646 59.6893 78.9818 59.2924C76.6662 58.6256 74.768 57.3083 73.6471 55.1073C73.2461 54.3177 73.0048 53.4341 72.792 52.5668C72.4566 51.2126 72.1661 49.8421 71.9288 48.4675C71.847 47.9889 71.9124 47.4652 72.0024 46.9784C72.1293 46.2952 72.3707 45.6324 72.5057 44.9492C72.8452 43.2473 73.6061 41.6968 74.4448 40.2281C75.3244 38.6899 76.7563 37.6835 78.4581 37.0167C79.9023 36.4521 81.2482 36.6771 82.6719 36.9717C84.5415 37.3521 86.2475 37.9944 87.7039 39.2667C88.7758 40.2036 89.5613 41.2673 90.1136 42.6173C90.944 44.6629 91.4881 46.7452 91.6191 48.9257C91.75 51.1553 91.48 53.3809 90.6577 55.4591C89.7331 57.8033 87.5812 59.5584 84.787 59.4848C84.2838 59.4725 83.7765 59.4848 83.4779 59.4848L83.4738 59.4766ZM89.1931 48.5248C89.1931 47.3098 88.5099 46.6184 87.3316 46.6429C86.3539 46.6634 85.5929 47.4325 85.5643 48.4307C85.5316 49.388 86.3621 50.1039 87.5076 50.1121C88.3626 50.1162 89.1931 49.3348 89.1972 48.5248H89.1931Z" fill="white"/>
<path d="M53.9772 54.6409C53.4413 54.6614 52.8399 54.5387 52.5536 53.7695C52.2385 52.9186 52.4104 52.17 52.9749 51.5113C53.1959 51.2536 53.5109 51.0654 53.8013 50.8813C54.2513 50.5949 54.6768 50.6195 55.0368 51.0531C55.1841 51.2331 55.3396 51.409 55.5073 51.5645C56.0841 52.1004 56.4523 52.7059 56.1332 53.5159C55.8632 54.195 55.0205 54.6573 53.9772 54.6409Z" fill="black"/>
<path d="M89.1931 48.5248C89.1931 49.3348 88.3626 50.1162 87.5035 50.1121C86.3539 50.104 85.5275 49.3921 85.5603 48.4307C85.593 47.4325 86.3498 46.6634 87.3276 46.6429C88.5099 46.6184 89.1931 47.3057 89.189 48.5248H89.1931Z" fill="black"/>
<path d="M78.3804 72.9607C79.1577 72.9443 79.9391 72.9811 80.7164 72.9607C82.3078 72.9198 83.8951 72.8584 85.4866 72.8052C87.4666 72.7357 89.4426 72.6293 91.4227 72.6088C92.5109 72.5966 92.6868 72.7684 92.8832 73.8484C93.0836 74.9571 93.2105 76.078 93.3291 77.199C93.4641 78.4713 94.8837 79.5473 96.0865 79.1054C97.682 78.5163 99.2243 77.78 100.783 77.0845C101.478 76.7736 101.691 76.2171 101.597 75.4562C101.511 74.7812 101.433 74.1103 101.364 73.4311C101.229 73.6112 101.041 73.7584 100.783 73.873C99.2284 74.5684 97.6861 75.3049 96.0865 75.894C94.8878 76.3358 93.4682 75.2598 93.3291 73.9875C93.2105 72.8666 93.0796 71.7456 92.8832 70.637C92.6909 69.5569 92.5109 69.3892 91.4227 69.3974C89.4426 69.4178 87.4625 69.5242 85.4866 69.5937C83.8951 69.651 82.3078 69.7124 80.7164 69.7492C79.9391 69.7697 79.1577 69.7287 78.3804 69.7492C77.5499 69.7697 77.3372 69.9455 77.3617 70.8047C77.3822 71.5779 77.509 72.3511 77.6236 73.1202C77.7831 73.0098 78.0204 72.9648 78.3845 72.9566L78.3804 72.9607Z" fill="#870B20"/>
<path d="M34.4957 73.7953C34.3443 74.2453 34.1889 74.6912 34.0416 75.1413C33.9475 75.4358 33.8657 75.7385 33.833 76.0454C33.7757 76.5854 33.9925 76.9413 34.5775 77.0231C34.8353 77.06 35.2035 77.0886 35.3139 77.2604C35.8171 78.0459 36.5781 78.0786 37.3717 78.0991C39.8223 78.1645 42.2728 78.23 44.7275 78.3077C45.1529 78.32 45.5784 78.4182 46.0039 78.4468C46.7362 78.4959 47.4644 78.545 48.1967 78.545C49.4772 78.5491 50.7577 78.4509 51.9645 79.0809C52.7214 79.4777 53.3964 79.1873 53.7032 78.2995C54.0223 77.3872 54.1901 76.4176 54.4151 75.4726C54.4683 75.2476 54.4233 74.953 54.5542 74.7976C54.7546 74.5562 55.0451 74.3067 55.3356 74.2412C55.6588 74.1676 56.031 74.278 56.3706 74.3476C58.2852 74.7362 60.1957 74.998 62.1513 74.6462C62.9777 74.4989 63.1863 74.7117 63.305 75.5504C63.3377 75.7795 63.3336 76.0126 63.3336 76.2458C63.3336 77.5059 63.6895 77.8168 64.97 77.6982C65.5509 77.645 66.1359 77.645 66.7128 77.5877C69.8424 77.2604 72.9189 77.8331 76.0118 78.1113C77.0836 78.2095 77.7955 77.5018 77.64 76.4504C77.5377 75.7631 77.4273 75.0676 77.3823 74.3762C77.0959 74.7526 76.6132 74.9571 76.0077 74.9039C72.9148 74.6258 69.8383 74.053 66.7087 74.3803C66.1319 74.4416 65.5428 74.4376 64.9659 74.4907C63.6895 74.6094 63.3295 74.2944 63.3295 73.0385C63.3295 72.8053 63.3295 72.572 63.3009 72.3429C63.1822 71.5043 62.9777 71.2916 62.1472 71.4388C60.1876 71.7907 58.277 71.5248 56.3665 71.1402C56.0229 71.0707 55.6506 70.9602 55.3315 71.0338C55.041 71.0993 54.7505 71.3488 54.5501 71.5902C54.4192 71.7457 54.4642 72.0361 54.411 72.2652C54.186 73.2103 54.0182 74.1757 53.6991 75.0921C53.3923 75.9799 52.7173 76.2704 51.9604 75.8735C50.7536 75.2435 49.4772 75.3417 48.1926 75.3376C47.4603 75.3376 46.728 75.2844 45.9998 75.2394C45.5743 75.2108 45.1488 75.1167 44.7234 75.1003C42.2728 75.0226 39.8223 74.9571 37.3676 74.8917C36.574 74.8712 35.813 74.8385 35.3098 74.053C35.2035 73.8853 34.8312 73.8525 34.5734 73.8157C34.5407 73.8116 34.5162 73.8035 34.4876 73.7953H34.4957Z" fill="#870B20"/>
<path d="M101.327 69.8065C101.425 69.4752 101.593 69.1601 101.875 68.8779C102.837 67.9124 103.978 67.1801 105.308 67.0287C106.429 66.9019 107.476 67.4869 108.139 68.3951C109.301 69.9865 110.679 71.4716 111.076 73.5089C111.17 73.9998 111.338 74.4826 111.391 74.9776C111.706 77.9518 112.046 80.926 112.283 83.9084C112.303 84.1416 112.32 84.3707 112.34 84.6039C112.533 83.3193 112.385 81.9979 112.283 80.6969C112.046 77.7145 111.706 74.7404 111.391 71.7662C111.338 71.2711 111.174 70.7884 111.076 70.2974C110.679 68.2601 109.297 66.775 108.139 65.1836C107.476 64.2754 106.429 63.6904 105.308 63.8172C103.978 63.9686 102.837 64.705 101.875 65.6664C101.164 66.3823 101.164 67.2987 101.209 68.1783C101.237 68.7183 101.278 69.2624 101.327 69.8024V69.8065Z" fill="#870B20"/>
<path d="M103.495 86.6085C103.54 87.8849 103.59 89.1613 103.639 90.4336C103.68 90.2945 103.7 90.1268 103.712 89.9304C103.725 89.7382 103.725 89.5418 103.716 89.3454C103.671 88.1304 103.626 86.9112 103.581 85.6962C103.487 85.8885 103.479 86.1585 103.495 86.6085Z" fill="#870B20"/>
<path d="M19.7351 87.8972C19.6983 88.2817 19.7679 88.6704 19.7679 89.059C19.7679 89.8445 19.7679 90.6259 19.7679 91.4114C19.7679 90.1718 19.7679 88.9199 19.7679 87.6721C19.7556 87.7458 19.7392 87.8154 19.731 87.8972H19.7351Z" fill="#870B20"/>
<path d="M16.8346 89.7545C18.4915 86.6862 19.6329 83.4134 20.8275 80.1528C21.1343 79.3142 21.5434 78.5164 21.8707 77.6859C22.2512 76.7122 22.6398 75.7385 22.9467 74.7444C23.3844 73.3289 23.7321 71.8848 24.7999 70.7679C25.6386 69.8924 26.6286 69.3443 27.8641 69.3033C29.3083 69.2542 30.7278 69.3197 32.1229 69.8229C32.8879 70.1011 33.6898 70.2729 34.5366 70.4693C34.733 69.8884 34.9253 69.3074 35.1012 68.7224C35.2198 68.3337 35.1994 67.9042 35.2485 67.4337C34.1398 67.1514 33.1007 66.9673 32.1229 66.6155C30.7319 66.1123 29.3123 66.0468 27.8641 66.0959C26.6286 66.1368 25.6345 66.6851 24.7999 67.5605C23.7321 68.6774 23.3844 70.1215 22.9467 71.537C22.6398 72.5353 22.2512 73.5089 21.8707 74.4785C21.5434 75.309 21.1343 76.1108 20.8275 76.9454C19.5838 80.3369 18.4015 83.7529 16.6301 86.9317C16.3928 87.3612 16.3846 87.9831 16.4419 88.4944C16.491 88.924 16.6587 89.3454 16.8346 89.7545Z" fill="#870B20"/>
<path d="M73.5242 20.0102C72.8697 18.9506 72.2683 17.8623 71.6301 16.7987C69.8545 13.8449 67.6781 11.2267 65.0885 8.94385C64.4871 8.4161 63.9757 7.78196 63.4071 7.18058C63.5666 6.9883 63.6402 6.83697 63.7589 6.75924C65.0066 5.93693 66.2462 5.11055 67.5104 4.31279C67.4081 4.2187 67.3017 4.12048 67.1953 4.02639C66.4262 3.335 66.2462 3.28592 65.3462 3.83412C63.8243 4.77097 62.3434 5.77329 60.8501 6.75514C60.7315 6.83287 60.6578 6.98016 60.4983 7.17653C61.0669 7.77792 61.5783 8.40791 62.1797 8.93975C64.7735 11.2185 66.9458 13.8408 68.7213 16.7946C69.3636 17.8582 69.965 18.9506 70.6155 20.0061C71.0082 20.6402 71.4419 21.217 72.3705 21.0452C72.7756 20.9715 73.2174 21.1393 73.6429 21.1679C74.0847 21.1966 74.3343 21.1475 74.4488 20.9716C74.0438 20.7956 73.7697 20.4152 73.5201 20.0061L73.5242 20.0102Z" fill="#6C7249"/>
</svg>
