<svg width="40" height="40" viewBox="0 0 40 40" fill="none" xmlns="http://www.w3.org/2000/svg">
<circle cx="20" cy="20" r="19.5" stroke="#996830"/>
<g clip-path="url(#clip0_299593_4759)">
<path d="M19.9797 11.8013C22.645 11.8013 22.9579 11.8132 24.0113 11.8607C24.9856 11.9043 25.5123 12.0667 25.8648 12.2053C26.3321 12.3875 26.6648 12.6013 27.0133 12.9498C27.3618 13.2983 27.5797 13.631 27.7579 14.0983C27.8925 14.4508 28.0589 14.9776 28.1024 15.9518C28.15 17.0053 28.1618 17.3181 28.1618 19.9835C28.1618 22.6488 28.15 22.9617 28.1024 24.0152C28.0589 24.9894 27.8965 25.5162 27.7579 25.8686C27.5757 26.336 27.3618 26.6686 27.0133 27.0172C26.6648 27.3657 26.3321 27.5835 25.8648 27.7617C25.5123 27.8964 24.9856 28.0627 24.0113 28.1063C22.9579 28.1538 22.645 28.1657 19.9797 28.1657C17.3143 28.1657 17.0014 28.1538 15.948 28.1063C14.9737 28.0627 14.447 27.9003 14.0945 27.7617C13.6272 27.5795 13.2945 27.3657 12.946 27.0172C12.5975 26.6686 12.3797 26.336 12.2014 25.8686C12.0668 25.5162 11.9004 24.9894 11.8569 24.0152C11.8094 22.9617 11.7975 22.6488 11.7975 19.9835C11.7975 17.3181 11.8094 17.0053 11.8569 15.9518C11.9004 14.9776 12.0628 14.4508 12.2014 14.0983C12.3836 13.631 12.5975 13.2983 12.946 12.9498C13.2945 12.6013 13.6272 12.3835 14.0945 12.2053C14.447 12.0706 14.9737 11.9043 15.948 11.8607C17.0014 11.8092 17.3143 11.8013 19.9797 11.8013ZM19.9797 10.0033C17.2707 10.0033 16.9301 10.0152 15.8648 10.0627C14.8034 10.1102 14.0787 10.2805 13.445 10.5261C12.7876 10.7795 12.2331 11.1241 11.6787 11.6785C11.1242 12.233 10.7836 12.7914 10.5262 13.4449C10.2806 14.0785 10.1103 14.8033 10.0628 15.8686C10.0153 16.93 10.0034 17.2706 10.0034 19.9795C10.0034 22.6884 10.0153 23.029 10.0628 24.0944C10.1103 25.1558 10.2806 25.8805 10.5262 26.5182C10.7797 27.1756 11.1242 27.73 11.6787 28.2845C12.2331 28.8389 12.7915 29.1795 13.445 29.437C14.0787 29.6825 14.8034 29.8528 15.8688 29.9003C16.9341 29.9479 17.2707 29.9597 19.9836 29.9597C22.6965 29.9597 23.0331 29.9479 24.0985 29.9003C25.1599 29.8528 25.8846 29.6825 26.5222 29.437C27.1797 29.1835 27.7341 28.8389 28.2886 28.2845C28.843 27.73 29.1836 27.1716 29.441 26.5182C29.6866 25.8845 29.8569 25.1597 29.9044 24.0944C29.9519 23.029 29.9638 22.6924 29.9638 19.9795C29.9638 17.2667 29.9519 16.93 29.9044 15.8647C29.8569 14.8033 29.6866 14.0785 29.441 13.4409C29.1876 12.7835 28.843 12.229 28.2886 11.6746C27.7341 11.1201 27.1757 10.7795 26.5222 10.5221C25.8886 10.2766 25.1638 10.1063 24.0985 10.0587C23.0292 10.0152 22.6886 10.0033 19.9797 10.0033Z" fill="#996830"/>
<path d="M19.9796 14.8549C17.1519 14.8549 14.8549 17.1479 14.8549 19.9796C14.8549 22.8113 17.1519 25.1044 19.9796 25.1044C22.8074 25.1044 25.1044 22.8073 25.1044 19.9796C25.1044 17.1519 22.8074 14.8549 19.9796 14.8549ZM19.9796 23.3063C18.142 23.3063 16.6529 21.8172 16.6529 19.9796C16.6529 18.142 18.142 16.6529 19.9796 16.6529C21.8173 16.6529 23.3064 18.142 23.3064 19.9796C23.3064 21.8172 21.8173 23.3063 19.9796 23.3063Z" fill="#996830"/>
<path d="M25.3064 15.849C25.9669 15.849 26.5024 15.3135 26.5024 14.6529C26.5024 13.9924 25.9669 13.4569 25.3064 13.4569C24.6458 13.4569 24.1103 13.9924 24.1103 14.6529C24.1103 15.3135 24.6458 15.849 25.3064 15.849Z" fill="#996830"/>
</g>
<defs>
<clipPath id="clip0_299593_4759">
<rect width="20" height="20" fill="white" transform="translate(10 10)"/>
</clipPath>
</defs>
</svg>
