<svg width="118" height="22" viewBox="0 0 118 22" fill="none" xmlns="http://www.w3.org/2000/svg">
<path d="M3.7 12C3.96667 10.2807 5.26667 8.71491 7 8.71491V8.28509C5.26667 8.28509 3.96667 6.7193 3.7 5H3.26667C3.03334 6.7193 1.7 8.28509 0 8.28509V8.71491C1.7 8.71491 3.03334 10.2807 3.26667 12H3.7Z" fill="#996830"/>
<path d="M20.04 17V16.52C20.584 16.488 20.992 16.424 21.264 16.328C21.552 16.232 21.744 16.04 21.84 15.752C21.936 15.464 21.984 15.032 21.984 14.456V2.552C21.984 1.96 21.936 1.528 21.84 1.256C21.744 0.967999 21.552 0.776 21.264 0.68C20.992 0.567999 20.584 0.503999 20.04 0.487999V0.0079999C20.408 0.0239997 20.872 0.0399995 21.432 0.0559993C21.992 0.0719991 22.544 0.079999 23.088 0.079999C23.712 0.079999 24.296 0.0719991 24.84 0.0559993C25.384 0.0399995 25.824 0.0239997 26.16 0.0079999V0.487999C25.616 0.503999 25.2 0.567999 24.912 0.68C24.64 0.776 24.456 0.967999 24.36 1.256C24.264 1.528 24.216 1.96 24.216 2.552V14.456C24.216 15.032 24.264 15.464 24.36 15.752C24.456 16.04 24.64 16.232 24.912 16.328C25.2 16.424 25.616 16.488 26.16 16.52V17C25.824 16.968 25.384 16.952 24.84 16.952C24.296 16.936 23.712 16.928 23.088 16.928C22.544 16.928 21.992 16.936 21.432 16.952C20.872 16.952 20.408 16.968 20.04 17ZM10.008 17V16.52C10.552 16.488 10.96 16.424 11.232 16.328C11.52 16.232 11.712 16.04 11.808 15.752C11.904 15.464 11.952 15.032 11.952 14.456V2.552C11.952 1.96 11.904 1.528 11.808 1.256C11.712 0.967999 11.52 0.776 11.232 0.68C10.96 0.567999 10.552 0.503999 10.008 0.487999V0.0079999C10.344 0.0239997 10.784 0.0399995 11.328 0.0559993C11.872 0.0719991 12.456 0.079999 13.08 0.079999C13.64 0.079999 14.192 0.0719991 14.736 0.0559993C15.296 0.0399995 15.76 0.0239997 16.128 0.0079999V0.487999C15.584 0.503999 15.168 0.567999 14.88 0.68C14.608 0.776 14.424 0.967999 14.328 1.256C14.232 1.528 14.184 1.96 14.184 2.552V14.456C14.184 15.032 14.232 15.464 14.328 15.752C14.424 16.04 14.608 16.232 14.88 16.328C15.168 16.424 15.584 16.488 16.128 16.52V17C15.76 16.968 15.296 16.952 14.736 16.952C14.192 16.936 13.64 16.928 13.08 16.928C12.456 16.928 11.872 16.936 11.328 16.952C10.784 16.952 10.344 16.968 10.008 17ZM13.344 8.696V8.216H22.824V8.696H13.344ZM32.7182 4.304C33.7422 4.304 34.6622 4.528 35.4782 4.976C36.2942 5.424 36.9422 6.128 37.4222 7.088C37.9182 8.048 38.1662 9.296 38.1662 10.832C38.1662 12.368 37.9182 13.616 37.4222 14.576C36.9422 15.52 36.2942 16.216 35.4782 16.664C34.6622 17.112 33.7422 17.336 32.7182 17.336C31.7102 17.336 30.7902 17.112 29.9582 16.664C29.1422 16.216 28.4862 15.52 27.9902 14.576C27.5102 13.616 27.2702 12.368 27.2702 10.832C27.2702 9.296 27.5102 8.048 27.9902 7.088C28.4862 6.128 29.1422 5.424 29.9582 4.976C30.7902 4.528 31.7102 4.304 32.7182 4.304ZM32.7182 4.784C31.8062 4.784 31.0542 5.256 30.4622 6.2C29.8862 7.144 29.5982 8.688 29.5982 10.832C29.5982 12.976 29.8862 14.52 30.4622 15.464C31.0542 16.392 31.8062 16.856 32.7182 16.856C33.6302 16.856 34.3742 16.392 34.9502 15.464C35.5422 14.52 35.8382 12.976 35.8382 10.832C35.8382 8.688 35.5422 7.144 34.9502 6.2C34.3742 5.256 33.6302 4.784 32.7182 4.784ZM47.3066 4.304C47.8666 4.304 48.3546 4.384 48.7706 4.544C49.1866 4.704 49.5306 4.928 49.8026 5.216C50.1066 5.536 50.3146 5.952 50.4266 6.464C50.5386 6.976 50.5946 7.608 50.5946 8.36V14.768C50.5946 15.44 50.7306 15.896 51.0026 16.136C51.2906 16.376 51.7626 16.496 52.4186 16.496V17C52.1466 16.984 51.7306 16.968 51.1706 16.952C50.6106 16.92 50.0666 16.904 49.5386 16.904C49.0106 16.904 48.4906 16.92 47.9786 16.952C47.4826 16.968 47.1066 16.984 46.8506 17V16.496C47.4266 16.496 47.8346 16.376 48.0746 16.136C48.3146 15.896 48.4346 15.44 48.4346 14.768V7.832C48.4346 7.336 48.4026 6.88 48.3386 6.464C48.2746 6.048 48.1146 5.712 47.8586 5.456C47.6026 5.2 47.1866 5.072 46.6106 5.072C45.9866 5.072 45.4266 5.264 44.9306 5.648C44.4506 6.032 44.0666 6.56 43.7786 7.232C43.5066 7.888 43.3706 8.624 43.3706 9.44V14.768C43.3706 15.44 43.4906 15.896 43.7306 16.136C43.9706 16.376 44.3786 16.496 44.9546 16.496V17C44.6986 16.984 44.3146 16.968 43.8026 16.952C43.3066 16.92 42.7946 16.904 42.2666 16.904C41.7386 16.904 41.1946 16.92 40.6346 16.952C40.0746 16.968 39.6586 16.984 39.3866 17V16.496C40.0426 16.496 40.5066 16.376 40.7786 16.136C41.0666 15.896 41.2106 15.44 41.2106 14.768V7.256C41.2106 6.536 41.0826 6.008 40.8266 5.672C40.5706 5.32 40.0906 5.144 39.3866 5.144V4.64C39.8986 4.688 40.3946 4.712 40.8746 4.712C41.3386 4.712 41.7786 4.688 42.1946 4.64C42.6266 4.576 43.0186 4.488 43.3706 4.376V7.208C43.7866 6.168 44.3546 5.424 45.0746 4.976C45.7946 4.528 46.5386 4.304 47.3066 4.304ZM54.5306 4.304C55.0906 4.304 55.5786 4.384 55.9946 4.544C56.4106 4.704 56.7546 4.928 57.0266 5.216C57.3306 5.536 57.5386 5.952 57.6506 6.464C57.7626 6.976 57.8186 7.608 57.8186 8.36V14.768C57.8186 15.44 57.9546 15.896 58.2266 16.136C58.5146 16.376 58.9866 16.496 59.6426 16.496V17C59.3706 16.984 58.9546 16.968 58.3946 16.952C57.8346 16.92 57.2906 16.904 56.7626 16.904C56.2346 16.904 55.7146 16.92 55.2026 16.952C54.7066 16.968 54.3306 16.984 54.0746 17V16.496C54.6506 16.496 55.0586 16.376 55.2986 16.136C55.5386 15.896 55.6586 15.44 55.6586 14.768V7.832C55.6586 7.336 55.6266 6.88 55.5626 6.464C55.4986 6.048 55.3386 5.712 55.0826 5.456C54.8266 5.2 54.4106 5.072 53.8346 5.072C53.2106 5.072 52.6506 5.264 52.1546 5.648C51.6746 6.032 51.2906 6.552 51.0026 7.208C50.7306 7.864 50.5946 8.6 50.5946 9.416L50.5226 7.184C50.9546 6.08 51.5386 5.328 52.2746 4.928C53.0106 4.512 53.7626 4.304 54.5306 4.304ZM65.9233 4.304C67.3313 4.304 68.4273 4.736 69.2113 5.6C70.0113 6.448 70.4113 7.776 70.4113 9.584H61.9393L61.9153 9.128H68.1073C68.1393 8.344 68.0753 7.624 67.9153 6.968C67.7553 6.296 67.4993 5.76 67.1473 5.36C66.8113 4.96 66.3713 4.76 65.8273 4.76C65.0913 4.76 64.4353 5.128 63.8593 5.864C63.2993 6.6 62.9633 7.768 62.8513 9.368L62.9233 9.464C62.8913 9.704 62.8673 9.968 62.8513 10.256C62.8353 10.544 62.8273 10.832 62.8273 11.12C62.8273 12.208 63.0033 13.144 63.3553 13.928C63.7073 14.712 64.1633 15.312 64.7233 15.728C65.2993 16.128 65.8913 16.328 66.4993 16.328C66.9793 16.328 67.4353 16.256 67.8673 16.112C68.2993 15.952 68.6993 15.696 69.0673 15.344C69.4353 14.992 69.7553 14.52 70.0273 13.928L70.5073 14.12C70.3313 14.648 70.0433 15.16 69.6433 15.656C69.2433 16.152 68.7393 16.56 68.1313 16.88C67.5233 17.184 66.8193 17.336 66.0193 17.336C64.8673 17.336 63.8753 17.072 63.0433 16.544C62.2273 16.016 61.5953 15.288 61.1473 14.36C60.7153 13.416 60.4993 12.336 60.4993 11.12C60.4993 9.712 60.7233 8.504 61.1713 7.496C61.6193 6.472 62.2513 5.688 63.0673 5.144C63.8833 4.584 64.8353 4.304 65.9233 4.304ZM82.5576 4.64V5.12C82.2536 5.152 81.9736 5.288 81.7176 5.528C81.4616 5.768 81.2216 6.192 80.9976 6.8L77.0616 17.12H76.6536L72.2376 6.488C71.9336 5.864 71.6296 5.488 71.3256 5.36C71.0376 5.216 70.7976 5.144 70.6056 5.144V4.64C70.9576 4.688 71.3256 4.728 71.7096 4.76C72.0936 4.776 72.5096 4.784 72.9576 4.784C73.4536 4.784 73.9736 4.768 74.5176 4.736C75.0776 4.704 75.5976 4.672 76.0776 4.64V5.144C75.6776 5.144 75.3176 5.176 74.9976 5.24C74.6936 5.288 74.5016 5.456 74.4216 5.744C74.3416 6.016 74.4376 6.488 74.7096 7.16L77.6616 14.48L77.5176 14.528L80.2536 7.376C80.4616 6.848 80.5416 6.432 80.4936 6.128C80.4616 5.808 80.3016 5.568 80.0136 5.408C79.7256 5.248 79.2936 5.152 78.7176 5.12V4.64C79.0056 4.656 79.2536 4.672 79.4616 4.688C79.6696 4.688 79.8696 4.696 80.0616 4.712C80.2696 4.712 80.4936 4.712 80.7336 4.712C81.1016 4.712 81.4296 4.704 81.7176 4.688C82.0216 4.672 82.3016 4.656 82.5576 4.64ZM77.0616 17.12L76.2456 19.208C76.0856 19.608 75.9176 19.944 75.7416 20.216C75.5816 20.488 75.4056 20.712 75.2136 20.888C74.9576 21.128 74.6536 21.288 74.3016 21.368C73.9496 21.464 73.6296 21.512 73.3416 21.512C73.0376 21.512 72.7576 21.456 72.5016 21.344C72.2616 21.232 72.0696 21.064 71.9256 20.84C71.7816 20.632 71.7096 20.376 71.7096 20.072C71.7096 19.688 71.8216 19.376 72.0456 19.136C72.2696 18.912 72.5816 18.8 72.9816 18.8C73.3176 18.8 73.6056 18.896 73.8456 19.088C74.0856 19.28 74.2056 19.56 74.2056 19.928C74.2056 20.2 74.1416 20.424 74.0136 20.6C73.8856 20.776 73.7336 20.912 73.5576 21.008C73.5896 21.024 73.6136 21.032 73.6296 21.032C73.6616 21.032 73.6856 21.032 73.7016 21.032C74.1336 21.032 74.5176 20.88 74.8536 20.576C75.1896 20.288 75.4856 19.816 75.7416 19.16L76.6056 16.928L77.0616 17.12ZM88.5604 4.304C89.5844 4.304 90.5044 4.528 91.3204 4.976C92.1364 5.424 92.7844 6.128 93.2644 7.088C93.7604 8.048 94.0084 9.296 94.0084 10.832C94.0084 12.368 93.7604 13.616 93.2644 14.576C92.7844 15.52 92.1364 16.216 91.3204 16.664C90.5044 17.112 89.5844 17.336 88.5604 17.336C87.5524 17.336 86.6324 17.112 85.8004 16.664C84.9844 16.216 84.3284 15.52 83.8324 14.576C83.3524 13.616 83.1124 12.368 83.1124 10.832C83.1124 9.296 83.3524 8.048 83.8324 7.088C84.3284 6.128 84.9844 5.424 85.8004 4.976C86.6324 4.528 87.5524 4.304 88.5604 4.304ZM88.5604 4.784C87.6484 4.784 86.8964 5.256 86.3044 6.2C85.7284 7.144 85.4404 8.688 85.4404 10.832C85.4404 12.976 85.7284 14.52 86.3044 15.464C86.8964 16.392 87.6484 16.856 88.5604 16.856C89.4724 16.856 90.2164 16.392 90.7924 15.464C91.3844 14.52 91.6804 12.976 91.6804 10.832C91.6804 8.688 91.3844 7.144 90.7924 6.2C90.2164 5.256 89.4724 4.784 88.5604 4.784ZM106.125 4.376V14.408C106.125 15.128 106.253 15.664 106.509 16.016C106.781 16.352 107.261 16.52 107.949 16.52V17.024C107.453 16.976 106.957 16.952 106.461 16.952C105.997 16.952 105.549 16.976 105.117 17.024C104.701 17.072 104.317 17.16 103.965 17.288V14.456C103.565 15.496 102.997 16.24 102.261 16.688C101.541 17.12 100.797 17.336 100.029 17.336C99.4688 17.336 98.9808 17.256 98.5648 17.096C98.1488 16.936 97.8048 16.712 97.5328 16.424C97.2288 16.104 97.0208 15.688 96.9088 15.176C96.7968 14.664 96.7408 14.032 96.7408 13.28V7.256C96.7408 6.536 96.6128 6.008 96.3568 5.672C96.1008 5.32 95.6208 5.144 94.9168 5.144V4.64C95.4288 4.688 95.9248 4.712 96.4048 4.712C96.8688 4.712 97.3088 4.688 97.7248 4.64C98.1568 4.576 98.5488 4.488 98.9008 4.376V13.808C98.9008 14.304 98.9328 14.76 98.9968 15.176C99.0608 15.592 99.2208 15.928 99.4768 16.184C99.7328 16.44 100.149 16.568 100.725 16.568C101.349 16.568 101.901 16.376 102.381 15.992C102.877 15.608 103.261 15.088 103.533 14.432C103.821 13.776 103.965 13.04 103.965 12.224V7.256C103.965 6.536 103.837 6.008 103.581 5.672C103.325 5.32 102.845 5.144 102.141 5.144V4.64C102.653 4.688 103.149 4.712 103.629 4.712C104.093 4.712 104.533 4.688 104.949 4.64C105.381 4.576 105.773 4.488 106.125 4.376Z" fill="#2C2C2C"/>
<path d="M114.7 12C114.967 10.2807 116.267 8.71491 118 8.71491V8.28509C116.267 8.28509 114.967 6.7193 114.7 5H114.267C114.033 6.7193 112.7 8.28509 111 8.28509V8.71491C112.7 8.71491 114.033 10.2807 114.267 12H114.7Z" fill="#996830"/>
</svg>
