<svg width="48" height="55" viewBox="0 0 48 55" fill="none" xmlns="http://www.w3.org/2000/svg">
<g clip-path="url(#clip0_299560_97)">
<path d="M44.2651 48.9669L48.6377 0H0L0.0571429 0.635429L4.36571 48.9737L4.40229 49.376L24.1349 54.8571H24.4457L44.224 49.3714L44.2606 48.9691L44.2651 48.9669ZM24.3611 10.6949H38.4937L38.0686 15.632L24.1257 21.8309L24.3589 22.9463H37.4423L35.936 40.2057L24.3109 43.4286L12.6903 40.2103L11.9589 31.9451H16.7429L17.1269 36.1349L17.1634 36.5417L24.2149 38.416H24.5189L31.4926 36.4777L31.5269 36.0731L32.1851 28.3337L32.2377 27.7029H11.5589L11.1246 22.736L25.5451 16.5623L25.3166 15.4423H10.5051L10.0823 10.688H24.3451L24.3611 10.6949Z" fill="#97EDAA"/>
</g>
<defs>
<clipPath id="clip0_299560_97">
<rect width="48" height="54.8571" fill="white"/>
</clipPath>
</defs>
</svg>
