<svg width="48" height="48" viewBox="0 0 48 48" fill="none" xmlns="http://www.w3.org/2000/svg">
<path d="M10 11C10 9.14345 10.7375 7.36298 12.0503 6.05022C13.363 4.73747 15.1435 3.99997 17 3.99997H24V18H17C15.1435 18 13.363 17.2625 12.0503 15.9497C10.7375 14.637 10 12.8565 10 11Z" stroke="#97EDAA" stroke-width="2" stroke-linecap="round" stroke-linejoin="round"/>
<path d="M24 3.99997H31C31.9193 3.99997 32.8295 4.18103 33.6788 4.53281C34.5281 4.8846 35.2997 5.40021 35.9498 6.05022C36.5998 6.70023 37.1154 7.47191 37.4672 8.32118C37.8189 9.17046 38 10.0807 38 11C38 11.9192 37.8189 12.8295 37.4672 13.6788C37.1154 14.528 36.5998 15.2997 35.9498 15.9497C35.2997 16.5997 34.5281 17.1153 33.6788 17.4671C32.8295 17.8189 31.9193 18 31 18H24V3.99997Z" stroke="#97EDAA" stroke-width="2" stroke-linecap="round" stroke-linejoin="round"/>
<path d="M24 25C24 24.0807 24.1811 23.1705 24.5328 22.3212C24.8846 21.4719 25.4002 20.7003 26.0503 20.0503C26.7003 19.4002 27.4719 18.8846 28.3212 18.5328C29.1705 18.1811 30.0807 18 31 18C31.9193 18 32.8295 18.1811 33.6788 18.5328C34.5281 18.8846 35.2997 19.4002 35.9498 20.0503C36.5998 20.7003 37.1154 21.4719 37.4672 22.3212C37.8189 23.1705 38 24.0807 38 25C38 25.9193 37.8189 26.8295 37.4672 27.6788C37.1154 28.5281 36.5998 29.2997 35.9498 29.9497C35.2997 30.5998 34.5281 31.1154 33.6788 31.4672C32.8295 31.8189 31.9193 32 31 32C30.0807 32 29.1705 31.8189 28.3212 31.4672C27.4719 31.1154 26.7003 30.5998 26.0503 29.9497C25.4002 29.2997 24.8846 28.5281 24.5328 27.6788C24.1811 26.8295 24 25.9193 24 25V25Z" stroke="#97EDAA" stroke-width="2" stroke-linecap="round" stroke-linejoin="round"/>
<path d="M10 39C10 37.1435 10.7375 35.363 12.0503 34.0503C13.363 32.7375 15.1435 32 17 32H24V39C24 40.8565 23.2625 42.637 21.9497 43.9498C20.637 45.2625 18.8565 46 17 46C15.1435 46 13.363 45.2625 12.0503 43.9498C10.7375 42.637 10 40.8565 10 39Z" stroke="#97EDAA" stroke-width="2" stroke-linecap="round" stroke-linejoin="round"/>
<path d="M10 25C10 23.1435 10.7375 21.363 12.0503 20.0503C13.363 18.7375 15.1435 18 17 18H24V32H17C15.1435 32 13.363 31.2625 12.0503 29.9497C10.7375 28.637 10 26.8565 10 25Z" stroke="#97EDAA" stroke-width="2" stroke-linecap="round" stroke-linejoin="round"/>
</svg>
