<svg width="48" height="48" viewBox="0 0 48 48" fill="none" xmlns="http://www.w3.org/2000/svg">
<g clip-path="url(#clip0_299560_101)">
<path fill-rule="evenodd" clip-rule="evenodd" d="M0 0H48V48H0V0ZM36.694 40.24C34.468 40.24 33.21 39.08 32.244 37.5L28.578 39.63C29.902 42.246 32.608 44.242 36.798 44.242C41.082 44.242 44.272 42.018 44.272 37.956C44.272 34.19 42.108 32.516 38.276 30.87L37.148 30.388C35.212 29.548 34.374 29.002 34.374 27.648C34.374 26.554 35.214 25.716 36.534 25.716C37.828 25.716 38.662 26.262 39.436 27.648L42.948 25.394C41.462 22.78 39.402 21.782 36.534 21.782C32.506 21.782 29.928 24.358 29.928 27.742C29.928 31.412 32.088 33.15 35.344 34.536L36.472 35.02C38.53 35.92 39.756 36.468 39.756 38.014C39.756 39.306 38.562 40.24 36.694 40.24V40.24ZM19.214 40.21C17.664 40.21 17.018 39.15 16.31 37.89L12.638 40.114C13.702 42.366 15.794 44.234 19.404 44.234C23.402 44.234 26.14 42.108 26.14 37.438V22.038H21.63V37.378C21.63 39.632 20.694 40.21 19.212 40.21H19.214Z" fill="#97EDAA"/>
</g>
<defs>
<clipPath id="clip0_299560_101">
<rect width="48" height="48" fill="white"/>
</clipPath>
</defs>
</svg>
