<svg width="48" height="48" viewBox="0 0 48 48" fill="none" xmlns="http://www.w3.org/2000/svg">
<path d="M14.8925 9.25296C14.3459 9.25296 13.9164 9.33908 13.6041 9.5113C13.3178 9.68353 13.1096 10.071 12.9794 10.6738C12.8753 11.2766 12.8233 12.2383 12.8233 13.5587V17.7783C12.8233 18.869 12.6671 19.8163 12.3548 20.62C12.0685 21.3951 11.7301 22.0266 11.3397 22.5145C10.9493 23.0025 10.5849 23.3757 10.2466 23.634C10.5329 23.8637 10.8712 24.2225 11.2616 24.7104C11.6781 25.1697 12.0425 25.7438 12.3548 26.4327C12.6671 27.0929 12.8233 27.8393 12.8233 28.6717V33.8385C12.8233 35.1302 12.8753 36.0775 12.9794 36.6803C13.1096 37.2831 13.3178 37.6706 13.6041 37.8428C13.9164 38.0151 14.3459 38.1012 14.8925 38.1012H16.337V43.3541H13.2527C12.524 43.3541 11.7952 43.3398 11.0664 43.3111C10.3637 43.2824 9.71301 43.1245 9.11438 42.8375C8.51575 42.5791 8.03424 42.0768 7.66986 41.3305C7.3315 40.6128 7.16233 39.5651 7.16233 38.1873V31.0829C7.16233 30.2217 7.0452 29.418 6.81096 28.6717C6.57671 27.8967 6.22534 27.2652 5.75685 26.7772C5.28835 26.2892 4.70274 26.0452 4 26.0452V21.0506C4.70274 21.0219 5.28835 20.7779 5.75685 20.3186C6.22534 19.8306 6.57671 19.2135 6.81096 18.4672C7.0452 17.6921 7.16233 16.8741 7.16233 16.0129V9.2099C7.16233 7.83208 7.3315 6.78436 7.66986 6.06674C8.00821 5.34912 8.46369 4.84679 9.0363 4.55974C9.63493 4.2727 10.2986 4.11482 11.0274 4.08611C11.7562 4.0287 12.4979 4 13.2527 4H16.337V9.25296H14.8925ZM44 24.0215C44 26.9494 43.6747 29.6907 43.024 32.2454C42.3993 34.8001 41.5925 37.0678 40.6034 39.0484C39.6144 41.0578 38.5603 42.7083 37.4411 44L32.9514 41.718C33.9664 40.4263 34.8774 38.9049 35.6843 37.1539C36.4911 35.4316 37.1288 33.4797 37.5973 31.2982C38.0658 29.0879 38.3 26.6624 38.3 24.0215C38.3 21.3807 38.0658 18.9695 37.5973 16.7879C37.1288 14.5777 36.4911 12.6114 35.6843 10.8891C34.8774 9.13814 33.9664 7.63115 32.9514 6.36814L37.4411 4.04306C38.5603 5.33477 39.6144 6.98529 40.6034 8.99462C41.5925 11.0039 42.3993 13.286 43.024 15.8407C43.6747 18.3667 44 21.0937 44 24.0215Z" fill="#97EDAA"/>
</svg>
