<svg width="48" height="29" viewBox="0 0 48 29" fill="none" xmlns="http://www.w3.org/2000/svg">
<g clip-path="url(#clip0_299560_111)">
<path d="M11.3259 7.55259H20.3792V8.27222H12.1558V13.6879H19.8889V14.4074H12.1558V20.3533H20.4735V21.0728H11.3259V7.55259ZM21.1903 7.55259H22.1522L26.4147 13.4985L30.7716 7.5525L36.6976 0L26.9617 14.1234L31.9787 21.0728H30.979L26.4147 14.7483L21.8315 21.0728H20.8508L25.9055 14.1233L21.1902 7.55259H21.1903ZM32.337 8.27222V7.5525H42.654V8.27212H37.901V21.0727H37.0711V8.27222H32.337V8.27222ZM0 7.5525H1.03734L15.3417 28.9578L9.4305 21.0727L0.867562 8.57512L0.829875 21.0729H0V7.5525ZM42.5704 20.136C42.4008 20.136 42.2737 20.0047 42.2737 19.8349C42.2737 19.6652 42.4008 19.5337 42.5704 19.5337C42.7419 19.5337 42.8671 19.6651 42.8671 19.8349C42.8671 20.0047 42.7419 20.136 42.5704 20.136ZM43.3858 19.3438H43.8299C43.8359 19.5843 44.0115 19.746 44.2699 19.746C44.5585 19.746 44.722 19.5722 44.722 19.2468V17.1852H45.1742V19.2487C45.1742 19.8349 44.8351 20.1725 44.2739 20.1725C43.747 20.1725 43.3858 19.845 43.3858 19.3437V19.3438ZM45.7656 19.3176H46.2137C46.252 19.5944 46.5225 19.7702 46.9121 19.7702C47.2754 19.7702 47.5418 19.5822 47.5418 19.3236C47.5418 19.1013 47.3722 18.9679 46.9867 18.8769L46.6113 18.786C46.0844 18.6626 45.8443 18.408 45.8443 17.9796C45.8443 17.4602 46.2682 17.1145 46.904 17.1145C47.4953 17.1145 47.9273 17.4601 47.9536 17.9512H47.5135C47.4712 17.6825 47.237 17.5147 46.8979 17.5147C46.5407 17.5147 46.3026 17.6865 46.3026 17.9492C46.3026 18.1573 46.4558 18.2767 46.8353 18.3655L47.1562 18.4444C47.7537 18.5839 48 18.8264 48 19.265C48 19.8228 47.5681 20.1725 46.8778 20.1725C46.2319 20.1725 45.7978 19.8389 45.7656 19.3175V19.3176Z" fill="#97EDAA"/>
</g>
<defs>
<clipPath id="clip0_299560_111">
<rect width="48" height="28.9688" fill="white"/>
</clipPath>
</defs>
</svg>
