<svg width="48" height="48" viewBox="0 0 48 48" fill="none" xmlns="http://www.w3.org/2000/svg">
<path d="M43.9999 33.84V39.84C44.0021 40.397 43.888 40.9483 43.6649 41.4587C43.4417 41.9691 43.1145 42.4272 42.704 42.8037C42.2936 43.1803 41.809 43.467 41.2814 43.6454C40.7537 43.8239 40.1946 43.8901 39.6399 43.84C33.4855 43.1713 27.5739 41.0683 22.3799 37.7C17.5475 34.6293 13.4505 30.5324 10.3799 25.7C6.99982 20.4824 4.89635 14.542 4.23987 8.36001C4.18989 7.80694 4.25562 7.24953 4.43287 6.72326C4.61012 6.19699 4.89501 5.71339 5.2694 5.30325C5.64379 4.89312 6.09948 4.56543 6.60745 4.34105C7.11542 4.11668 7.66455 4.00053 8.21987 4.00001H14.2199C15.1905 3.99046 16.1314 4.33417 16.8674 4.96708C17.6033 5.59998 18.084 6.4789 18.2199 7.44001C18.4731 9.36014 18.9428 11.2455 19.6199 13.06C19.889 13.7759 19.9472 14.5538 19.7877 15.3018C19.6282 16.0497 19.2576 16.7362 18.7199 17.28L16.1799 19.82C19.027 24.8271 23.1728 28.9729 28.1799 31.82L30.7199 29.28C31.2636 28.7423 31.9502 28.3717 32.6981 28.2122C33.446 28.0527 34.224 28.1109 34.9399 28.38C36.7544 29.0571 38.6397 29.5268 40.5599 29.78C41.5314 29.9171 42.4187 30.4064 43.0529 31.155C43.6872 31.9036 44.0242 32.8592 43.9999 33.84Z" stroke="#97EDAA" stroke-width="2" stroke-linecap="round" stroke-linejoin="round"/>
</svg>
