<svg width="48" height="48" viewBox="0 0 48 48" fill="none" xmlns="http://www.w3.org/2000/svg">
<path d="M48 23.378C48 20.198 44.018 17.184 37.912 15.316C39.322 9.094 38.696 4.142 35.936 2.556C35.2672 2.18144 34.5103 1.9929 33.744 2.01V4.19C34.194 4.19 34.556 4.28 34.86 4.446C36.19 5.21 36.768 8.114 36.318 11.852C36.21 12.772 36.034 13.74 35.818 14.728C33.7733 14.2353 31.698 13.8792 29.606 13.662C28.3597 11.9426 27 10.3083 25.536 8.77C28.726 5.806 31.72 4.182 33.756 4.182V2C31.064 2 27.542 3.918 23.98 7.244C20.42 3.94 16.896 2.04 14.206 2.04V4.22C16.232 4.22 19.236 5.836 22.426 8.78C21.056 10.22 19.686 11.852 18.384 13.662C16.2877 13.8767 14.2087 14.2363 12.162 14.738C11.936 13.76 11.77 12.812 11.652 11.902C11.192 8.162 11.76 5.258 13.082 4.486C13.374 4.31 13.756 4.23 14.206 4.23V2.05C13.386 2.05 12.64 2.226 11.996 2.596C9.246 4.182 8.63 9.122 10.048 15.326C3.962 17.206 0 20.208 0 23.378C0 26.558 3.982 29.572 10.088 31.438C8.678 37.662 9.304 42.614 12.064 44.198C12.7 44.57 13.444 44.746 14.264 44.746C16.956 44.746 20.478 42.828 24.04 39.502C27.6 42.808 31.122 44.706 33.814 44.706C34.5862 44.7223 35.3489 44.5332 36.024 44.158C38.774 42.574 39.39 37.634 37.972 31.43C44.038 29.562 48 26.548 48 23.378ZM35.26 16.852C34.88 18.1597 34.4395 19.4491 33.94 20.716C33.1223 19.1255 32.2245 17.5775 31.25 16.078C32.64 16.284 33.98 16.538 35.262 16.852H35.26ZM30.78 27.272C30.018 28.592 29.234 29.846 28.422 31.01C25.4865 31.2687 22.5341 31.2721 19.598 31.02C17.9139 28.6144 16.4411 26.0675 15.196 23.408C16.4392 20.7422 17.9057 18.1864 19.58 15.768C22.5148 15.5087 25.4665 15.5047 28.402 15.756C29.214 16.92 30.008 18.164 30.77 19.476C31.514 20.756 32.19 22.056 32.806 23.368C32.1832 24.6959 31.5073 25.9983 30.78 27.272V27.272ZM33.94 26C34.468 27.31 34.92 28.622 35.29 29.894C34.01 30.208 32.658 30.472 31.26 30.676C32.2305 29.1628 33.1249 27.6022 33.94 26V26ZM24.02 36.44C23.11 35.5 22.2 34.454 21.3 33.308C22.18 33.348 23.08 33.378 23.99 33.378C24.91 33.378 25.82 33.358 26.71 33.308C25.83 34.454 24.92 35.5 24.02 36.44ZM16.74 30.676C15.3915 30.4806 14.0527 30.223 12.728 29.904C13.09 28.642 13.54 27.34 14.048 26.04C14.45 26.82 14.872 27.604 15.332 28.388C15.792 29.17 16.26 29.934 16.74 30.676ZM23.97 10.316C24.88 11.256 25.79 12.302 26.69 13.448C25.81 13.408 24.91 13.378 24 13.378C23.08 13.378 22.17 13.398 21.28 13.448C22.16 12.302 23.07 11.256 23.97 10.316ZM16.73 16.08C15.7597 17.5899 14.8653 19.1471 14.05 20.746C13.5364 19.4709 13.0859 18.1713 12.7 16.852C13.98 16.548 15.332 16.284 16.73 16.08ZM7.876 28.328C4.412 26.852 2.172 24.914 2.172 23.378C2.172 21.842 4.412 19.894 7.876 18.428C8.716 18.066 9.636 17.742 10.586 17.44C11.144 19.356 11.878 21.352 12.786 23.398C11.9287 25.3224 11.2037 27.303 10.616 29.326C9.6869 29.0383 8.77247 28.7053 7.876 28.328V28.328ZM13.14 42.308C11.81 41.548 11.232 38.64 11.682 34.904C11.79 33.984 11.966 33.014 12.182 32.026C14.098 32.496 16.192 32.858 18.394 33.094C19.6404 34.8134 21 36.4477 22.464 37.986C19.274 40.95 16.28 42.574 14.244 42.574C13.8599 42.5782 13.4807 42.4875 13.14 42.31V42.308ZM36.348 34.854C36.808 38.592 36.24 41.498 34.918 42.27C34.626 42.446 34.244 42.524 33.794 42.524C31.768 42.524 28.764 40.91 25.574 37.964C26.944 36.528 28.314 34.894 29.616 33.084C31.7123 32.8693 33.7913 32.5097 35.838 32.008C36.064 32.996 36.238 33.944 36.348 34.854V34.854ZM40.114 28.328C39.274 28.69 38.354 29.014 37.404 29.316C36.8059 27.2826 36.0709 25.2921 35.204 23.358C36.104 21.324 36.826 19.338 37.374 17.43C38.344 17.732 39.262 18.066 40.124 18.428C43.588 19.904 45.828 21.842 45.828 23.378C45.818 24.914 43.578 26.862 40.114 28.328V28.328Z" fill="#97EDAA"/>
<path d="M23.9896 27.8498C25.1756 27.8498 26.3131 27.3787 27.1518 26.54C27.9904 25.7013 28.4616 24.5639 28.4616 23.3778C28.4616 22.1918 27.9904 21.0543 27.1518 20.2156C26.3131 19.377 25.1756 18.9058 23.9896 18.9058C22.8035 18.9058 21.6661 19.377 20.8274 20.2156C19.9887 21.0543 19.5176 22.1918 19.5176 23.3778C19.5176 24.5639 19.9887 25.7013 20.8274 26.54C21.6661 27.3787 22.8035 27.8498 23.9896 27.8498V27.8498Z" fill="#97EDAA"/>
</svg>
