<svg width="48" height="48" viewBox="0 0 48 48" fill="none" xmlns="http://www.w3.org/2000/svg">
<path d="M12 19.1875C13.5996 12.7713 17.6004 9.5625 24 9.5625C33.6 9.5625 34.8 16.7812 39.6 17.9843C42.8004 18.7868 45.6 17.5837 48 14.375C46.4004 20.7912 42.3996 24 36 24C26.4 24 25.2 16.7813 20.4 15.5782C17.1996 14.7757 14.4 15.9788 12 19.1875ZM0 33.625C1.59956 27.2088 5.60044 24 12 24C21.6 24 22.8 31.2188 27.6 32.4218C30.8004 33.2243 33.6 32.0213 36 28.8125C34.4004 35.2287 30.3996 38.4375 24 38.4375C14.4 38.4375 13.2 31.2187 8.4 30.0157C5.19956 29.2132 2.4 30.4162 0 33.625Z" fill="#97EDAA"/>
</svg>
