<svg width="175" height="48" viewBox="0 0 175 48" fill="none" xmlns="http://www.w3.org/2000/svg">
<path d="M29.2782 19.799C27.3179 19.799 25.4747 20.6312 24.0041 22.1367C22.5376 20.6158 20.7158 19.799 18.7202 19.799C15.2356 19.799 12.1575 22.3265 11.2349 25.9454C10.7514 27.841 10.6503 30.8583 12.9126 34.4662C14.9334 37.6885 18.4042 40.6568 23.2284 43.2885C23.4684 43.4194 23.7329 43.4847 23.9979 43.4847C24.2625 43.4847 24.5275 43.4194 24.7672 43.2887C29.5929 40.657 33.0648 37.6887 35.0864 34.4664C37.3499 30.8585 37.249 27.8414 36.7657 25.9458C35.8426 22.3265 32.7638 19.799 29.2782 19.799ZM23.9977 40.0381C13.4523 34.0123 13.9355 28.3577 14.3483 26.7393C14.8989 24.5797 16.7375 23.0123 18.7199 23.0123C20.2281 23.0123 21.6145 23.93 22.6233 25.5964C22.9142 26.0771 23.4354 26.3708 23.9975 26.371C23.9975 26.371 23.9975 26.371 23.9977 26.371C24.5596 26.371 25.0808 26.0775 25.3717 25.597C26.3818 23.9302 27.7688 23.0123 29.278 23.0123C31.2617 23.0123 33.101 24.5797 33.6515 26.7393C34.0643 28.3575 34.5468 34.0119 23.9977 40.0381Z" fill="#124C5F"/>
<path d="M17.0684 17.044C20.5225 17.044 23.3326 14.2341 23.3326 10.7802C23.3326 7.32589 20.5225 4.51575 17.0684 4.51575C13.6141 4.51575 10.8037 7.32611 10.8037 10.7802C10.8037 14.2341 13.6141 17.044 17.0684 17.044ZM17.0684 7.72906C18.7509 7.72906 20.1193 9.09793 20.1193 10.7802C20.1193 12.4623 18.7507 13.8307 17.0684 13.8307C15.3859 13.8307 14.017 12.4623 14.017 10.7802C14.017 9.09771 15.3857 7.72906 17.0684 7.72906Z" fill="#124C5F"/>
<path d="M30.9322 17.044C34.3863 17.044 37.1965 14.2341 37.1965 10.7802C37.1965 7.32589 34.3863 4.51575 30.9322 4.51575C27.4781 4.51575 24.668 7.32611 24.668 10.7802C24.6678 14.2341 27.4779 17.044 30.9322 17.044ZM30.9322 7.72906C32.6145 7.72906 33.9831 9.09793 33.9831 10.7802C33.9831 12.4623 32.6145 13.8307 30.9322 13.8307C29.2497 13.8307 27.8813 12.4623 27.8813 10.7802C27.8811 9.09771 29.2497 7.72906 30.9322 7.72906Z" fill="#124C5F"/>
<path d="M5.7981 14.0148C2.60107 14.0148 0 16.6161 0 19.8135C0 23.0105 2.60107 25.6114 5.7981 25.6114C8.99556 25.6114 11.5966 23.0103 11.5966 19.8135C11.5968 16.6161 8.99556 14.0148 5.7981 14.0148ZM5.7981 22.3981C4.37289 22.3981 3.21331 21.2387 3.21331 19.8135C3.21331 18.3881 4.37289 17.2283 5.7981 17.2283C7.22352 17.2283 8.38331 18.3881 8.38331 19.8135C8.38353 21.2387 7.22374 22.3981 5.7981 22.3981Z" fill="#124C5F"/>
<path d="M42.2014 14.0148C39.0042 14.0148 36.4033 16.616 36.4033 19.8133C36.4033 23.0103 39.0044 25.6112 42.2014 25.6112C45.3989 25.6112 47.9999 23.0101 47.9999 19.8133C47.9999 16.616 45.3989 14.0148 42.2014 14.0148ZM42.2014 22.3981C40.7762 22.3981 39.6166 21.2385 39.6166 19.8135C39.6166 18.3881 40.7762 17.2283 42.2014 17.2283C43.6268 17.2283 44.7866 18.3881 44.7866 19.8135C44.7866 21.2387 43.6268 22.3981 42.2014 22.3981Z" fill="#124C5F"/>
<path d="M81.568 23.696C81.632 23.824 81.664 23.9307 81.664 24.016C81.664 24.1227 81.6427 24.2187 81.6 24.304C81.5787 24.368 81.5573 24.4107 81.536 24.432C81.9627 24.432 82.272 24.5387 82.464 24.752C82.656 24.9653 82.752 25.2427 82.752 25.584C82.752 25.9253 82.656 26.2453 82.464 26.544C82.272 26.8213 82.048 26.9493 81.792 26.928C81.856 27.0773 81.888 27.3227 81.888 27.664C81.888 28.1973 81.8027 28.5173 81.632 28.624C81.824 28.8373 81.92 29.2213 81.92 29.776C81.92 30.096 81.8773 30.4053 81.792 30.704C81.728 30.9813 81.632 31.1733 81.504 31.28C81.696 31.4933 81.792 31.8667 81.792 32.4C81.792 32.7413 81.7387 32.9653 81.632 33.072C81.7387 33.2853 81.792 33.5307 81.792 33.808C81.792 34.2987 81.696 34.6933 81.504 34.992C81.6747 35.2693 81.76 35.5573 81.76 35.856C81.76 36.1333 81.7067 36.336 81.6 36.464C81.5787 36.8693 81.4613 37.232 81.248 37.552C81.0347 37.8507 80.7467 38 80.384 38C80.2347 38 80.032 37.9467 79.776 37.84C79.328 37.6267 79.104 37.1467 79.104 36.4C79.104 36.016 79.136 35.6853 79.2 35.408C79.0507 35.024 78.976 34.5867 78.976 34.096C78.976 33.52 79.0827 33.008 79.296 32.56C79.04 32.176 78.912 31.7067 78.912 31.152C78.912 30.704 79.008 30.3733 79.2 30.16C79.1147 30.0747 79.072 29.84 79.072 29.456C79.072 29.0933 79.1147 28.8587 79.2 28.752C79.0933 28.3893 79.04 27.8987 79.04 27.28C79.04 27.088 79.0507 26.9707 79.072 26.928C78.9013 27.0133 78.7627 27.056 78.656 27.056C78.4427 27.056 78.2827 26.9813 78.176 26.832C77.984 26.96 77.8027 27.024 77.632 27.024C77.44 27.024 77.2587 26.9493 77.088 26.8C76.832 26.928 76.5653 26.992 76.288 26.992C76.032 26.992 75.8187 26.928 75.648 26.8C75.4347 26.8853 75.1467 26.928 74.784 26.928C74.3787 26.928 74.0907 26.8747 73.92 26.768C73.536 26.896 73.184 26.96 72.864 26.96C72.5653 26.96 72.32 26.896 72.128 26.768C71.7653 26.9173 71.4027 26.992 71.04 26.992C70.6347 26.992 70.2293 26.8853 69.824 26.672C69.9947 26.928 70.08 27.2587 70.08 27.664C70.08 27.984 70.0373 28.2827 69.952 28.56C70.1867 28.9013 70.304 29.2427 70.304 29.584C70.304 29.84 70.24 30.1173 70.112 30.416C70.2827 30.6933 70.368 31.0453 70.368 31.472C70.368 31.8773 70.2933 32.1867 70.144 32.4C70.4 32.912 70.528 33.328 70.528 33.648C70.528 33.9467 70.4213 34.2773 70.208 34.64C70.3573 34.896 70.432 35.28 70.432 35.792C70.432 36.1333 70.3787 36.4 70.272 36.592C70.272 36.976 70.1547 37.2747 69.92 37.488C69.6853 37.7013 69.3973 37.808 69.056 37.808C68.6933 37.808 68.384 37.712 68.128 37.52C67.872 37.3067 67.744 37.0293 67.744 36.688C67.744 36.5387 67.776 36.368 67.84 36.176C67.584 35.856 67.456 35.4933 67.456 35.088C67.456 34.8747 67.4987 34.6827 67.584 34.512C67.6693 34.32 67.7867 34.1813 67.936 34.096C67.8507 33.9467 67.7653 33.7013 67.68 33.36C67.616 32.9973 67.584 32.6667 67.584 32.368C67.584 31.9627 67.6373 31.7067 67.744 31.6C67.616 31.5147 67.5093 31.376 67.424 31.184C67.36 30.992 67.328 30.7893 67.328 30.576C67.328 30.256 67.4027 30 67.552 29.808C67.4027 29.488 67.328 29.1573 67.328 28.816C67.328 28.6453 67.3387 28.5173 67.36 28.432C67.296 28.1973 67.264 27.9627 67.264 27.728C67.264 27.4507 67.296 27.1733 67.36 26.896C67.1893 26.448 67.104 25.9253 67.104 25.328C67.104 24.7307 67.2 24.336 67.392 24.144C67.2427 23.8453 67.168 23.4827 67.168 23.056C67.168 22.6933 67.2107 22.416 67.296 22.224C67.1253 21.9893 67.04 21.68 67.04 21.296C67.04 20.976 67.0827 20.72 67.168 20.528C67.104 20.4 67.04 20.2187 66.976 19.984C66.9333 19.7493 66.912 19.5147 66.912 19.28C66.912 18.768 67.0187 18.3947 67.232 18.16C67.1467 17.9893 67.104 17.8613 67.104 17.776C67.104 17.648 67.1467 17.5413 67.232 17.456C66.9973 17.2 66.88 16.9227 66.88 16.624C66.88 16.2827 67.0293 15.984 67.328 15.728C67.6267 15.472 67.9573 15.344 68.32 15.344C68.5547 15.344 68.768 15.4187 68.96 15.568C69.1733 15.7173 69.3227 15.952 69.408 16.272C69.728 16.5493 69.888 16.8693 69.888 17.232C69.888 17.4027 69.8347 17.5947 69.728 17.808C69.8347 17.936 69.888 18.1173 69.888 18.352C69.888 18.544 69.8453 18.7253 69.76 18.896C69.6747 19.0667 69.5787 19.184 69.472 19.248C69.7707 19.504 69.92 19.8347 69.92 20.24C69.92 20.5813 69.8027 20.8693 69.568 21.104C69.8453 21.36 69.984 21.648 69.984 21.968C69.984 22.2027 69.9093 22.4693 69.76 22.768C69.9733 23.0453 70.08 23.3653 70.08 23.728C70.08 23.984 70.0373 24.1653 69.952 24.272C70.272 24.1013 70.656 24.016 71.104 24.016C71.5947 24.016 71.936 24.1227 72.128 24.336C72.6613 24.144 73.1093 24.048 73.472 24.048C73.8773 24.048 74.2187 24.144 74.496 24.336C74.6667 24.2507 74.8907 24.176 75.168 24.112C75.4453 24.048 75.712 24.016 75.968 24.016C76.352 24.016 76.6293 24.1013 76.8 24.272C77.0773 24.08 77.4293 23.984 77.856 23.984C78.432 23.984 78.8907 24.144 79.232 24.464C79.168 24.2933 79.136 24.0587 79.136 23.76C79.136 23.3333 79.1893 23.0987 79.296 23.056C79.168 22.8 79.104 22.5333 79.104 22.256C79.104 21.9787 79.168 21.776 79.296 21.648C79.2533 21.4773 79.232 21.3387 79.232 21.232C79.232 20.9973 79.264 20.8053 79.328 20.656C79.1573 20.4213 79.072 20.1653 79.072 19.888C79.072 19.696 79.1253 19.4933 79.232 19.28C79.1253 19.0667 79.072 18.8747 79.072 18.704C79.072 18.4053 79.1787 18.2027 79.392 18.096C79.328 17.8613 79.296 17.68 79.296 17.552C79.296 17.36 79.3387 17.1467 79.424 16.912C79.2747 16.6347 79.2 16.3787 79.2 16.144C79.2 15.824 79.328 15.5573 79.584 15.344C79.84 15.1093 80.1387 14.992 80.48 14.992C80.736 14.992 80.9707 15.0773 81.184 15.248C81.3973 15.3973 81.5467 15.6213 81.632 15.92C81.9093 16.112 82.048 16.4533 82.048 16.944C82.048 17.3493 81.9627 17.744 81.792 18.128C81.92 18.32 81.984 18.672 81.984 19.184C81.984 19.568 81.9413 19.8347 81.856 19.984C81.9413 20.1333 81.984 20.336 81.984 20.592C81.984 20.9333 81.9307 21.2107 81.824 21.424C81.9307 21.5307 81.984 21.6693 81.984 21.84C81.984 22.0747 81.92 22.256 81.792 22.384C81.856 22.576 81.888 22.7467 81.888 22.896C81.888 23.1947 81.7813 23.4613 81.568 23.696ZM97.5288 25.488C97.7634 25.5947 97.9768 25.8507 98.1688 26.256C98.3821 26.6613 98.4888 27.0773 98.4888 27.504C98.4888 28.2293 98.1688 28.72 97.5288 28.976C97.3581 29.2747 97.1234 29.5093 96.8248 29.68C96.5474 29.8507 96.2381 29.936 95.8968 29.936C95.6194 29.936 95.3314 29.872 95.0328 29.744C94.8621 29.8507 94.6274 29.9467 94.3288 30.032C94.0301 30.1173 93.7314 30.16 93.4328 30.16C92.9208 30.16 92.5688 30.0533 92.3767 29.84C92.1634 30.0107 91.8221 30.096 91.3528 30.096C91.0114 30.096 90.7021 30.032 90.4248 29.904C90.1261 30.0533 89.7848 30.128 89.4008 30.128C89.0381 30.128 88.7394 30.0747 88.5048 29.968C88.2914 30.16 87.8541 30.256 87.1927 30.256C86.8301 30.256 86.5848 30.224 86.4568 30.16C86.5208 30.7787 86.4354 31.2373 86.2008 31.536C86.6061 31.9413 86.7661 32.3787 86.6808 32.848C86.7021 32.8693 86.8194 32.9547 87.0328 33.104C87.2461 33.2533 87.3954 33.4987 87.4808 33.84C87.7154 33.84 87.9288 33.936 88.1208 34.128C88.3341 34.32 88.4621 34.512 88.5048 34.704C88.5901 34.6187 88.7608 34.576 89.0168 34.576C89.2088 34.576 89.3794 34.608 89.5288 34.672C89.6781 34.736 89.7634 34.8107 89.7848 34.896C89.9341 34.8107 90.1048 34.768 90.2968 34.768C90.5741 34.768 90.8301 34.864 91.0648 35.056C91.2781 35.0133 91.4381 34.992 91.5448 34.992C91.7581 34.992 91.9394 35.024 92.0888 35.088C92.1528 34.9173 92.3234 34.7573 92.6008 34.608C92.8781 34.4373 93.1661 34.3627 93.4648 34.384C93.6354 34.1707 93.8701 34 94.1688 33.872C94.4674 33.744 94.7661 33.68 95.0648 33.68C95.6408 33.68 96.0568 33.9147 96.3128 34.384C96.3981 34.5547 96.4408 34.7573 96.4408 34.992C96.4408 35.504 96.2061 35.9093 95.7368 36.208C95.6301 36.272 95.4488 36.3893 95.1928 36.56C94.9368 36.7093 94.7021 36.8267 94.4888 36.912C94.2754 36.9973 94.0834 37.04 93.9128 37.04C93.5928 37.424 93.1554 37.616 92.6008 37.616C92.3448 37.616 92.1528 37.5947 92.0248 37.552C91.7688 37.7653 91.3954 37.872 90.9048 37.872C90.4568 37.872 90.1474 37.7867 89.9768 37.616C89.8274 37.68 89.6781 37.712 89.5288 37.712C89.2301 37.712 88.9528 37.6053 88.6968 37.392C87.6088 37.456 86.8728 37.1147 86.4888 36.368C86.1901 36.368 85.8488 36.1867 85.4648 35.824C85.1021 35.44 84.8994 35.1093 84.8568 34.832C84.3661 34.64 84.0568 34.288 83.9288 33.776C83.9074 33.6053 83.9074 33.4453 83.9288 33.296C83.8434 33.2747 83.7688 33.1893 83.7048 33.04C83.6621 32.8693 83.6408 32.6987 83.6408 32.528C83.6408 32.4 83.6514 32.3147 83.6728 32.272C83.5021 31.76 83.4168 31.2907 83.4168 30.864C83.4168 30.4373 83.5021 30.0533 83.6728 29.712C83.5448 29.4773 83.4808 29.2213 83.4808 28.944C83.4808 28.6027 83.5554 28.2613 83.7048 27.92C83.8541 27.5787 83.9928 27.3547 84.1208 27.248C84.0781 27.1413 84.1101 26.96 84.2168 26.704C84.3234 26.4267 84.4621 26.1813 84.6328 25.968C84.8248 25.7333 85.0168 25.5947 85.2088 25.552L85.1768 25.2C85.1768 24.368 85.6248 23.8453 86.5208 23.632C86.5208 23.2693 86.7341 22.9173 87.1608 22.576C87.5874 22.2347 87.9608 22.0853 88.2808 22.128C88.3234 21.8933 88.5261 21.712 88.8888 21.584C89.2728 21.4347 89.5608 21.392 89.7528 21.456C89.9234 21.1787 90.2648 20.9867 90.7768 20.88C90.9688 20.6667 91.2461 20.56 91.6088 20.56C91.7154 20.56 91.8541 20.5813 92.0248 20.624L92.3128 20.592C92.5688 20.592 92.7821 20.6453 92.9528 20.752C93.1448 20.8373 93.2301 20.944 93.2088 21.072C93.6781 21.1147 94.0728 21.2213 94.3928 21.392C94.7128 21.5627 94.9048 21.872 94.9688 22.32C95.2461 22.256 95.5981 22.3307 96.0248 22.544C96.4514 22.736 96.8141 23.0453 97.1128 23.472C97.4328 23.8773 97.5928 24.3573 97.5928 24.912C97.5928 25.04 97.5714 25.232 97.5288 25.488ZM92.8248 27.568C93.0381 27.2693 93.5608 27.12 94.3928 27.12C94.8621 27.12 95.2248 27.1627 95.4808 27.248C95.3101 27.1627 95.1501 26.9813 95.0008 26.704C94.8728 26.4053 94.8088 26.128 94.8088 25.872C94.8088 25.7013 94.8408 25.5733 94.9048 25.488C94.6061 25.5093 94.3501 25.4347 94.1368 25.264C93.9448 25.072 93.7634 24.8587 93.5928 24.624C93.4434 24.3893 93.3261 24.2187 93.2408 24.112C93.1341 24.176 92.9101 24.1227 92.5688 23.952C92.2488 23.76 92.0781 23.568 92.0568 23.376C91.9714 23.4827 91.7901 23.5787 91.5128 23.664C91.2354 23.728 91.0221 23.7493 90.8728 23.728C90.8088 23.8347 90.6594 23.9413 90.4248 24.048C90.1901 24.1547 89.9448 24.1867 89.6888 24.144C89.4754 24.5493 89.2514 24.88 89.0168 25.136C88.7821 25.392 88.4834 25.584 88.1208 25.712C88.0781 26.0107 87.9394 26.3413 87.7048 26.704C87.4914 27.0667 87.2674 27.344 87.0328 27.536L87.1608 27.568C87.4594 27.3547 87.8648 27.248 88.3768 27.248C88.6754 27.248 88.9528 27.28 89.2088 27.344C89.4861 27.408 89.6781 27.4827 89.7848 27.568C90.2968 27.248 90.8621 27.088 91.4808 27.088C91.9928 27.088 92.4408 27.248 92.8248 27.568ZM103.998 34C104.211 34.2347 104.318 34.5973 104.318 35.088C104.318 35.408 104.265 35.7173 104.158 36.016C104.073 36.2933 103.955 36.496 103.806 36.624C103.87 37.0293 103.763 37.36 103.486 37.616C103.209 37.872 102.878 38 102.494 38C102.238 38 101.993 37.936 101.758 37.808C101.523 37.68 101.353 37.4667 101.246 37.168C101.139 36.8693 101.086 36.5493 101.086 36.208C101.086 35.7387 101.161 35.3653 101.31 35.088C101.203 34.896 101.15 34.6187 101.15 34.256C101.15 33.8507 101.214 33.4347 101.342 33.008C101.193 32.8373 101.118 32.528 101.118 32.08C101.118 31.504 101.203 31.0773 101.374 30.8C101.246 30.5013 101.182 30.2133 101.182 29.936C101.182 29.552 101.278 29.168 101.47 28.784C101.299 28.336 101.214 27.9307 101.214 27.568C101.214 27.2693 101.278 26.928 101.406 26.544C101.193 26.3093 101.086 26.0107 101.086 25.648C101.086 25.4987 101.097 25.392 101.118 25.328C100.883 25.0507 100.766 24.7307 100.766 24.368C100.766 24.1333 100.83 23.9093 100.958 23.696C100.809 23.3547 100.734 23.024 100.734 22.704C100.734 22.192 100.862 21.808 101.118 21.552C100.99 21.2533 100.926 20.8907 100.926 20.464C100.926 20.1227 100.979 19.8773 101.086 19.728C100.979 19.664 100.894 19.5467 100.83 19.376C100.766 19.2053 100.734 19.0133 100.734 18.8C100.734 18.4373 100.819 18.1387 100.99 17.904C100.926 17.7333 100.894 17.5093 100.894 17.232C100.894 17.0187 100.915 16.8267 100.958 16.656C100.702 16.4 100.574 16.1013 100.574 15.76C100.574 15.3973 100.723 15.088 101.022 14.832C101.342 14.5547 101.694 14.416 102.078 14.416C102.334 14.416 102.569 14.5013 102.782 14.672C102.995 14.8213 103.145 15.056 103.23 15.376C103.55 15.5893 103.71 15.92 103.71 16.368C103.71 16.4533 103.689 16.5813 103.646 16.752C103.902 17.008 104.03 17.3387 104.03 17.744C104.03 18.0853 103.923 18.352 103.71 18.544C103.817 18.6293 103.913 18.7787 103.998 18.992C104.083 19.184 104.126 19.3973 104.126 19.632C104.126 20.016 103.987 20.336 103.71 20.592C103.881 20.8267 103.966 21.1147 103.966 21.456C103.966 21.7973 103.902 22.0747 103.774 22.288C103.859 22.3733 103.902 22.5867 103.902 22.928C103.902 23.12 103.881 23.3227 103.838 23.536C103.795 23.7493 103.731 23.8987 103.646 23.984C103.966 24.2613 104.126 24.6133 104.126 25.04C104.126 25.2747 104.083 25.4773 103.998 25.648C104.126 25.84 104.19 26.128 104.19 26.512C104.19 27.0027 104.105 27.3973 103.934 27.696C104.083 27.9947 104.158 28.3893 104.158 28.88C104.158 29.4773 104.062 29.904 103.87 30.16C104.019 30.3733 104.094 30.64 104.094 30.96C104.094 31.2373 104.03 31.568 103.902 31.952C104.094 32.1653 104.19 32.496 104.19 32.944C104.19 33.328 104.126 33.68 103.998 34ZM119.559 26.608C119.815 26.8213 119.943 27.1627 119.943 27.632C119.943 27.7387 119.922 27.8773 119.879 28.048C119.986 28.0907 120.071 28.2933 120.135 28.656C120.199 28.9973 120.231 29.3813 120.231 29.808C120.231 30.448 120.156 30.8533 120.007 31.024C120.071 31.1733 120.103 31.344 120.103 31.536C120.103 31.984 119.911 32.3573 119.527 32.656C119.591 32.784 119.623 32.9547 119.623 33.168C119.623 33.5093 119.548 33.8933 119.399 34.32C119.25 34.7253 119.079 35.0133 118.887 35.184C118.887 35.5253 118.695 35.9093 118.311 36.336C117.948 36.7413 117.596 36.9653 117.255 37.008C117.106 37.2427 116.871 37.4347 116.551 37.584C116.231 37.7333 115.9 37.808 115.559 37.808C115.282 37.808 115.047 37.7653 114.855 37.68C114.642 37.808 114.364 37.872 114.023 37.872C113.746 37.872 113.468 37.8293 113.191 37.744C112.935 37.6587 112.743 37.552 112.615 37.424C112.444 37.4667 112.295 37.488 112.167 37.488C111.74 37.488 111.431 37.392 111.239 37.2C111.218 37.3067 111.196 37.4667 111.175 37.68C111.154 37.872 111.09 38.0213 110.983 38.128C111.111 38.32 111.175 38.5653 111.175 38.864C111.175 39.3333 111.058 39.6853 110.823 39.92C110.951 40.0267 111.058 40.1867 111.143 40.4C111.228 40.6347 111.271 40.8693 111.271 41.104C111.271 41.4667 111.164 41.744 110.951 41.936C111.058 42.256 111.111 42.5867 111.111 42.928C111.111 43.4187 110.983 43.792 110.727 44.048C110.471 44.3253 110.172 44.464 109.831 44.464C109.511 44.464 109.212 44.3573 108.935 44.144C108.679 43.9307 108.498 43.6213 108.391 43.216C108.327 43.1307 108.274 42.9813 108.231 42.768C108.188 42.576 108.167 42.3627 108.167 42.128C108.167 41.616 108.252 41.328 108.423 41.264C108.21 40.8587 108.103 40.3787 108.103 39.824C108.103 39.3547 108.188 38.896 108.359 38.448C108.167 38.256 108.071 37.936 108.071 37.488C108.071 37.104 108.156 36.8053 108.327 36.592C108.284 36.4427 108.22 36.2613 108.135 36.048C108.05 35.8133 108.007 35.6107 108.007 35.44C108.007 35.2907 108.06 35.1093 108.167 34.896C108.039 34.64 107.975 34.416 107.975 34.224C107.975 34.032 108.039 33.7973 108.167 33.52C108.295 33.2427 108.38 33.0507 108.423 32.944C108.231 32.6453 108.135 32.176 108.135 31.536C108.135 30.96 108.21 30.5653 108.359 30.352C108.06 29.712 107.911 29.2107 107.911 28.848C107.911 28.4853 108.007 28.1973 108.199 27.984C108.114 27.8133 108.071 27.6213 108.071 27.408C108.071 27.1947 108.135 26.992 108.263 26.8C108.114 26.5653 108.039 26.224 108.039 25.776C108.039 25.2 108.146 24.7947 108.359 24.56C108.124 23.9627 108.007 23.376 108.007 22.8C108.007 22.3093 108.092 21.9467 108.263 21.712C108.242 21.648 108.231 21.552 108.231 21.424C108.231 21.0613 108.38 20.7627 108.679 20.528C108.999 20.272 109.34 20.144 109.703 20.144C109.98 20.144 110.215 20.2187 110.407 20.368C110.599 20.5173 110.738 20.7413 110.823 21.04L110.983 21.136C111.132 20.9227 111.335 20.7733 111.591 20.688C111.847 20.5813 112.124 20.5493 112.423 20.592C112.615 20.336 112.978 20.208 113.511 20.208C113.852 20.208 114.162 20.24 114.439 20.304C114.567 20.2613 114.684 20.24 114.791 20.24C115.004 20.24 115.218 20.2933 115.431 20.4C115.644 20.4853 115.783 20.5813 115.847 20.688C116.124 20.688 116.327 20.7093 116.455 20.752C116.604 20.7947 116.764 20.9227 116.935 21.136C117.106 21.136 117.255 21.1893 117.383 21.296C117.532 21.3813 117.628 21.488 117.671 21.616C117.863 21.6373 117.991 21.6907 118.055 21.776C118.14 21.8613 118.215 22 118.279 22.192C118.706 22.5973 118.94 23.2693 118.983 24.208C119.218 24.336 119.388 24.5493 119.495 24.848C119.623 25.1467 119.687 25.4667 119.687 25.808C119.687 26.0853 119.644 26.352 119.559 26.608ZM114.823 35.088C114.93 34.8533 115.111 34.6507 115.367 34.48C115.623 34.288 115.868 34.1707 116.103 34.128C116.103 33.6373 116.284 33.168 116.647 32.72C116.583 32.4 116.551 32.208 116.551 32.144C116.551 31.6533 116.754 31.2373 117.159 30.896C117.095 30.512 117.063 30.064 117.063 29.552C117.063 29.2747 117.084 29.072 117.127 28.944C116.914 28.7733 116.732 28.4747 116.583 28.048C116.455 27.6 116.391 27.1627 116.391 26.736C116.391 26.4587 116.423 26.224 116.487 26.032C116.316 25.8613 116.178 25.5947 116.071 25.232C115.986 24.8693 115.964 24.5387 116.007 24.24C115.836 24.176 115.644 24.0587 115.431 23.888C115.239 23.7173 115.09 23.5573 114.983 23.408C114.834 23.408 114.684 23.376 114.535 23.312C114.407 23.248 114.268 23.1733 114.119 23.088C114.012 23.1733 113.756 23.216 113.351 23.216C113.031 23.216 112.818 23.1947 112.711 23.152C112.348 23.3867 111.986 23.504 111.623 23.504C111.367 23.504 111.122 23.4293 110.887 23.28C111.079 23.6 111.175 24.0053 111.175 24.496C111.175 24.9867 111.1 25.3813 110.951 25.68C111.122 25.9147 111.207 26.3413 111.207 26.96C111.207 27.4933 111.132 27.8667 110.983 28.08C111.154 28.3787 111.239 28.88 111.239 29.584C111.239 30.1813 111.154 30.6187 110.983 30.896C111.132 31.1733 111.207 31.568 111.207 32.08C111.207 32.5493 111.143 32.912 111.015 33.168C111.143 33.36 111.207 33.6587 111.207 34.064C111.207 34.2133 111.186 34.3733 111.143 34.544C111.399 34.5013 111.751 34.544 112.199 34.672C112.668 34.7787 113.01 34.9173 113.223 35.088C113.351 35.0453 113.618 35.024 114.023 35.024C114.45 35.024 114.716 35.0453 114.823 35.088ZM137.597 18.64C138.023 18.7467 138.429 18.992 138.813 19.376C139.218 19.76 139.41 20.1333 139.389 20.496C139.645 20.6453 139.869 20.912 140.061 21.296C140.253 21.6587 140.349 22.0107 140.349 22.352C140.349 22.608 140.285 22.8213 140.157 22.992C140.242 23.248 140.285 23.5467 140.285 23.888C140.285 24.2293 140.231 24.56 140.125 24.88C140.274 25.1787 140.349 25.5413 140.349 25.968C140.349 26.3733 140.263 26.7467 140.093 27.088C139.943 27.4293 139.719 27.664 139.421 27.792C139.399 28.0053 139.314 28.2507 139.165 28.528C139.015 28.8053 138.877 29.008 138.749 29.136L138.781 29.424C138.781 29.808 138.663 30.1067 138.429 30.32C138.237 30.512 138.077 30.6293 137.949 30.672C137.97 30.8853 137.895 31.0773 137.725 31.248C137.554 31.3973 137.33 31.5147 137.053 31.6C137.01 31.856 136.925 32.048 136.797 32.176C136.669 32.304 136.466 32.4107 136.189 32.496C136.125 32.7093 135.997 32.9013 135.805 33.072C135.634 33.2213 135.431 33.3173 135.197 33.36C135.069 33.7013 134.909 33.936 134.717 34.064C134.546 34.1707 134.279 34.224 133.917 34.224C133.853 34.928 133.405 35.4293 132.573 35.728C132.445 35.9413 132.285 36.0907 132.093 36.176C131.922 36.2613 131.73 36.3253 131.517 36.368C131.325 36.4107 131.186 36.4427 131.101 36.464C130.823 36.6987 130.461 36.9227 130.013 37.136C129.565 37.328 129.127 37.424 128.701 37.424C128.487 37.424 128.285 37.392 128.093 37.328C127.965 37.52 127.762 37.68 127.485 37.808C127.229 37.936 126.962 38 126.685 38C126.407 38 126.162 37.9253 125.949 37.776C125.159 37.776 124.765 37.3173 124.765 36.4C124.765 36.2507 124.786 36.0267 124.829 35.728C124.487 35.4293 124.317 35.0773 124.317 34.672C124.317 34.3947 124.391 34.1493 124.541 33.936C124.434 33.68 124.381 33.488 124.381 33.36C124.381 33.2107 124.455 33.008 124.605 32.752C124.327 32.2613 124.189 31.7067 124.189 31.088C124.189 30.5547 124.306 30.1173 124.541 29.776C124.327 29.328 124.221 28.8267 124.221 28.272C124.221 27.6107 124.37 26.9813 124.669 26.384C124.541 26.1707 124.423 25.8933 124.317 25.552C124.231 25.1893 124.189 24.8373 124.189 24.496C124.189 23.9627 124.306 23.5467 124.541 23.248C124.391 23.056 124.263 22.8 124.157 22.48C124.071 22.16 124.029 21.84 124.029 21.52C124.029 21.0933 124.114 20.7627 124.285 20.528C124.263 20.464 124.253 20.368 124.253 20.24C124.253 19.984 124.306 19.7707 124.413 19.6C124.263 19.28 124.21 18.832 124.253 18.256C123.847 18 123.645 17.6373 123.645 17.168C123.645 16.9333 123.709 16.7093 123.837 16.496C123.965 16.2827 124.146 16.1227 124.381 16.016C124.466 15.8027 124.615 15.632 124.829 15.504C125.042 15.376 125.266 15.312 125.501 15.312C125.799 15.312 126.066 15.3973 126.301 15.568C126.45 15.3547 126.781 15.248 127.293 15.248C127.57 15.248 127.794 15.28 127.965 15.344C128.157 15.408 128.263 15.4933 128.285 15.6C128.711 15.4933 129.127 15.44 129.533 15.44C130.087 15.44 130.535 15.5253 130.877 15.696C131.069 15.568 131.293 15.504 131.549 15.504C131.954 15.504 132.263 15.632 132.477 15.888C132.647 15.8453 132.786 15.824 132.893 15.824C133.234 15.824 133.554 15.9307 133.853 16.144C134.173 16.3573 134.375 16.624 134.461 16.944C134.674 16.8373 134.877 16.784 135.069 16.784C135.346 16.784 135.602 16.8587 135.837 17.008C136.093 17.1573 136.285 17.328 136.413 17.52C136.69 17.52 136.935 17.6267 137.149 17.84C137.383 18.032 137.533 18.2987 137.597 18.64ZM128.861 34.608C128.989 34.416 129.223 34.2667 129.565 34.16C129.927 34.0533 130.269 34 130.589 34C130.866 33.5947 131.186 33.392 131.549 33.392C131.549 33.0933 131.666 32.8587 131.901 32.688C132.157 32.496 132.498 32.3147 132.925 32.144C132.967 31.8027 133.117 31.4933 133.373 31.216C133.65 30.9387 133.938 30.8107 134.237 30.832C134.407 30.5973 134.631 30.4267 134.909 30.32C135.058 29.936 135.293 29.6693 135.613 29.52C135.677 29.1147 135.879 28.816 136.221 28.624C136.263 28.3467 136.349 28.08 136.477 27.824C136.605 27.5467 136.743 27.3653 136.893 27.28C136.935 26.896 137.021 26.5227 137.149 26.16C137.277 25.776 137.447 25.552 137.661 25.488C137.597 25.3173 137.565 25.1467 137.565 24.976C137.565 24.8693 137.586 24.7093 137.629 24.496C137.479 24.2827 137.405 23.8133 137.405 23.088C137.405 22.704 137.437 22.416 137.501 22.224C137.479 22.1813 137.405 22.096 137.277 21.968C137.17 21.84 137.117 21.7013 137.117 21.552C136.967 21.5093 136.85 21.424 136.765 21.296C136.679 21.168 136.615 21.0827 136.573 21.04C136.253 21.04 135.975 20.9227 135.741 20.688C135.506 20.4533 135.367 20.1653 135.325 19.824C135.154 19.8453 134.941 19.8133 134.685 19.728C134.45 19.6213 134.269 19.4827 134.141 19.312C133.885 19.376 133.554 19.3333 133.149 19.184C132.765 19.0133 132.53 18.7573 132.445 18.416C132.381 18.4373 132.263 18.448 132.093 18.448C131.794 18.448 131.538 18.3733 131.325 18.224C131.133 18.3093 130.909 18.352 130.653 18.352C130.226 18.352 129.821 18.2347 129.437 18C129.074 18.1493 128.701 18.224 128.317 18.224C127.89 18.224 127.527 18.1173 127.229 17.904C127.101 17.968 126.951 18 126.781 18C126.759 18 126.749 18.0107 126.749 18.032C126.834 18.1173 126.898 18.2987 126.941 18.576C127.005 18.832 127.037 19.1307 127.037 19.472C127.037 20.3253 126.93 20.8693 126.717 21.104C126.823 21.2747 126.919 21.5947 127.005 22.064C127.09 22.512 127.133 22.9707 127.133 23.44C127.133 24.08 127.058 24.5493 126.909 24.848C127.058 25.1253 127.133 25.5093 127.133 26C127.133 26.6187 127.005 27.1093 126.749 27.472C126.898 27.8987 126.994 28.4853 127.037 29.232L127.101 29.968C127.122 30.16 127.111 30.3947 127.069 30.672C127.026 30.9493 127.005 31.1947 127.005 31.408C127.005 31.6213 127.037 31.8453 127.101 32.08C127.143 32.3787 127.165 32.6027 127.165 32.752C127.165 32.944 127.133 33.1253 127.069 33.296C127.154 33.4027 127.239 33.584 127.325 33.84C127.41 34.096 127.421 34.3093 127.357 34.48C127.591 34.352 127.826 34.288 128.061 34.288C128.423 34.288 128.69 34.3947 128.861 34.608ZM151.771 37.616C151.515 37.872 151.121 38 150.587 38C150.182 38 149.851 37.936 149.595 37.808C149.211 37.8933 148.87 37.936 148.571 37.936C147.739 37.936 147.142 37.7227 146.779 37.296C146.694 37.3173 146.577 37.328 146.427 37.328C145.937 37.328 145.563 37.104 145.307 36.656C145.094 36.6773 144.817 36.5707 144.475 36.336C144.155 36.08 144.017 35.8347 144.059 35.6C143.718 35.5147 143.43 35.312 143.195 34.992C142.982 34.6507 142.886 34.2667 142.907 33.84C142.673 33.7547 142.491 33.584 142.363 33.328C142.235 33.072 142.171 32.784 142.171 32.464C142.171 32.1227 142.225 31.8773 142.331 31.728C142.097 31.3653 141.979 30.9493 141.979 30.48C141.979 29.9893 142.129 29.5947 142.427 29.296C142.193 29.1253 142.075 28.8693 142.075 28.528C142.075 28.3147 142.129 28.1013 142.235 27.888C142.342 27.6747 142.481 27.5253 142.651 27.44C142.609 27.1413 142.641 26.864 142.747 26.608C142.875 26.3307 143.046 26.128 143.259 26C143.217 25.936 143.195 25.84 143.195 25.712C143.195 25.52 143.259 25.328 143.387 25.136C143.537 24.944 143.697 24.8267 143.867 24.784C143.846 24.72 143.835 24.6347 143.835 24.528C143.835 24.08 144.006 23.696 144.347 23.376C144.689 23.0347 145.019 22.8853 145.339 22.928C145.339 22.6293 145.467 22.384 145.723 22.192C146.001 21.9787 146.353 21.872 146.779 21.872C146.971 21.872 147.121 21.8827 147.227 21.904C147.377 21.584 147.633 21.328 147.995 21.136C148.358 20.9227 148.731 20.816 149.115 20.816C149.371 20.816 149.585 20.8693 149.755 20.976C150.054 20.72 150.427 20.592 150.875 20.592C151.238 20.592 151.558 20.6773 151.835 20.848C152.134 21.0187 152.315 21.2533 152.379 21.552C152.721 21.552 153.083 21.68 153.467 21.936C153.851 22.1707 154.075 22.416 154.139 22.672C154.651 22.8213 155.142 23.152 155.611 23.664C156.102 24.1547 156.347 24.656 156.347 25.168C156.347 25.2533 156.326 25.3813 156.283 25.552C157.201 25.744 157.617 26.672 157.531 28.336C157.723 28.656 157.819 28.9973 157.819 29.36C157.819 29.7867 157.681 30.2133 157.403 30.64C157.467 30.832 157.499 31.0133 157.499 31.184C157.499 31.44 157.446 31.6853 157.339 31.92C157.233 32.1547 157.094 32.336 156.923 32.464C156.945 32.8053 156.881 33.0827 156.731 33.296C156.603 33.5093 156.358 33.7973 155.995 34.16C156.017 34.2453 156.027 34.3733 156.027 34.544C156.027 35.184 155.665 35.6 154.939 35.792C154.875 36.1333 154.694 36.4107 154.395 36.624C154.118 36.8373 153.777 36.944 153.371 36.944C153.03 37.4133 152.614 37.648 152.123 37.648C151.974 37.648 151.857 37.6373 151.771 37.616ZM148.763 35.376C148.934 35.2267 149.222 35.152 149.627 35.152C149.926 35.152 150.086 35.1947 150.107 35.28C150.278 35.088 150.491 34.9387 150.747 34.832C151.003 34.7253 151.238 34.6827 151.451 34.704C151.814 34.3413 152.209 34.16 152.635 34.16C152.785 34.16 152.891 34.1707 152.955 34.192C152.934 34 152.987 33.8187 153.115 33.648C153.243 33.456 153.393 33.328 153.563 33.264C153.563 32.9867 153.627 32.752 153.755 32.56C153.905 32.3467 154.086 32.1867 154.299 32.08C154.299 31.6533 154.385 31.312 154.555 31.056C154.491 30.8853 154.459 30.7147 154.459 30.544C154.459 30.3093 154.513 30.0853 154.619 29.872C154.726 29.6373 154.875 29.4453 155.067 29.296C154.854 29.104 154.747 28.8693 154.747 28.592C154.747 28.336 154.822 28.08 154.971 27.824C154.545 27.568 154.257 27.3227 154.107 27.088C153.979 26.832 153.915 26.3733 153.915 25.712C153.723 25.7333 153.521 25.6267 153.307 25.392C153.115 25.1573 152.998 24.8907 152.955 24.592C152.721 24.656 152.433 24.592 152.091 24.4C151.771 24.1867 151.611 23.92 151.611 23.6C151.441 23.6853 151.238 23.728 151.003 23.728C150.555 23.728 150.193 23.568 149.915 23.248C149.681 23.4827 149.371 23.6747 148.987 23.824C148.625 23.952 148.305 23.9947 148.027 23.952C148.006 24.1653 147.814 24.4213 147.451 24.72C147.11 24.9973 146.801 25.1787 146.523 25.264C146.587 25.392 146.619 25.5413 146.619 25.712C146.619 25.9253 146.566 26.1387 146.459 26.352C146.353 26.5653 146.203 26.7467 146.011 26.896C146.033 27.1947 145.958 27.4827 145.787 27.76C145.638 28.0373 145.425 28.2293 145.147 28.336C145.19 28.5067 145.211 28.6453 145.211 28.752C145.211 29.0507 145.137 29.2853 144.987 29.456C145.051 29.6053 145.083 29.7547 145.083 29.904C145.083 30.1387 144.966 30.3947 144.731 30.672C145.265 31.0347 145.531 31.5573 145.531 32.24C145.531 32.6027 145.467 32.912 145.339 33.168C145.553 33.1893 145.702 33.2533 145.787 33.36C145.873 33.4667 145.947 33.6373 146.011 33.872C146.545 33.936 146.939 34.192 147.195 34.64C147.43 34.64 147.718 34.7147 148.059 34.864C148.422 35.0133 148.657 35.184 148.763 35.376ZM169.247 41.072C169.204 40.9013 169.257 40.6987 169.407 40.464C169.556 40.2293 169.705 40.1013 169.855 40.08C169.812 39.9093 169.791 39.7493 169.791 39.6C169.791 39.3227 169.833 39.056 169.919 38.8C170.025 38.5653 170.164 38.384 170.335 38.256C170.313 38.1707 170.303 38.0533 170.303 37.904C170.303 37.6267 170.356 37.3707 170.463 37.136C170.569 36.88 170.687 36.7093 170.815 36.624C169.535 37.264 168.735 37.5093 168.415 37.36C167.86 37.488 167.412 37.552 167.071 37.552C166.623 37.552 166.313 37.4773 166.143 37.328C165.951 37.4347 165.695 37.488 165.375 37.488C164.948 37.488 164.532 37.392 164.127 37.2C163.743 36.9867 163.476 36.72 163.327 36.4C162.751 36.3573 162.217 36.0587 161.727 35.504C161.236 34.928 160.969 34.2667 160.927 33.52C160.543 33.392 160.244 33.104 160.031 32.656C159.839 32.1867 159.743 31.6747 159.743 31.12C159.743 30.5013 159.86 30.0427 160.095 29.744C159.945 29.6373 159.817 29.392 159.711 29.008C159.625 28.6027 159.583 28.176 159.583 27.728C159.583 26.7467 159.828 26.0853 160.319 25.744C160.255 25.6373 160.265 25.424 160.351 25.104C160.436 24.7627 160.575 24.432 160.767 24.112C160.959 23.792 161.151 23.5893 161.343 23.504C161.321 23.312 161.396 23.0987 161.567 22.864C161.737 22.6293 161.94 22.448 162.175 22.32C162.409 22.192 162.591 22.1493 162.719 22.192C162.804 21.8293 162.985 21.5733 163.263 21.424C163.561 21.2747 163.913 21.1573 164.319 21.072C164.425 20.752 164.66 20.5173 165.023 20.368C165.407 20.1973 165.844 20.112 166.335 20.112C166.825 20.112 167.284 20.1867 167.711 20.336C168.159 20.464 168.489 20.6347 168.703 20.848C168.916 20.6773 169.236 20.592 169.663 20.592C170.324 20.592 170.729 20.8587 170.879 21.392C171.049 21.328 171.22 21.296 171.391 21.296C171.753 21.296 172.073 21.4347 172.351 21.712C172.628 21.968 172.767 22.2773 172.767 22.64C172.767 22.832 172.745 22.9707 172.703 23.056C172.916 23.3547 173.076 23.632 173.183 23.888C173.311 24.144 173.353 24.4 173.311 24.656C173.375 24.848 173.407 25.0187 173.407 25.168C173.407 25.5093 173.321 25.7653 173.151 25.936C173.172 26 173.183 26.0853 173.183 26.192C173.183 26.4267 173.097 26.6827 172.927 26.96C173.076 27.1733 173.151 27.408 173.151 27.664C173.151 27.92 173.076 28.1547 172.927 28.368C172.969 28.752 172.991 29.008 172.991 29.136C173.055 29.6693 173.087 30.032 173.087 30.224C173.087 30.3307 173.065 30.4693 173.023 30.64C173.193 30.8747 173.279 31.216 173.279 31.664C173.279 32.112 173.204 32.4533 173.055 32.688C173.375 33.2853 173.535 33.744 173.535 34.064C173.535 34.32 173.46 34.5547 173.311 34.768C173.396 34.9173 173.439 35.088 173.439 35.28C173.439 35.4933 173.375 35.728 173.247 35.984C173.375 36.176 173.439 36.4747 173.439 36.88C173.439 37.328 173.332 37.7227 173.119 38.064C173.225 38.0853 173.247 38.2133 173.183 38.448C173.119 38.704 173.012 38.9493 172.863 39.184C172.969 39.3973 173.023 39.5893 173.023 39.76C173.023 40.016 172.948 40.2613 172.799 40.496C172.649 40.752 172.457 40.9333 172.223 41.04C171.945 41.8293 171.551 42.288 171.039 42.416C171.06 42.672 170.964 42.9173 170.751 43.152C170.537 43.408 170.313 43.5573 170.079 43.6C169.972 44.0693 169.567 44.304 168.863 44.304C168.713 44.496 168.468 44.6453 168.127 44.752C167.807 44.8587 167.444 44.912 167.039 44.912C166.249 44.912 165.652 44.7093 165.247 44.304C164.969 44.2827 164.703 44.176 164.447 43.984C164.191 43.8133 163.999 43.6 163.871 43.344C163.551 43.3227 163.273 43.1947 163.039 42.96C162.825 42.7253 162.708 42.448 162.687 42.128C162.516 41.8507 162.431 41.6053 162.431 41.392C162.431 41.0293 162.58 40.72 162.879 40.464C163.177 40.2293 163.519 40.112 163.903 40.112C164.159 40.112 164.383 40.176 164.575 40.304C164.788 40.4533 164.948 40.6667 165.055 40.944C165.503 41.0507 165.801 41.296 165.951 41.68C166.313 41.7227 166.601 41.8507 166.815 42.064C166.879 41.9573 167.017 41.872 167.231 41.808C167.444 41.7653 167.668 41.744 167.903 41.744C168.137 41.744 168.319 41.776 168.447 41.84C168.447 41.6693 168.532 41.4987 168.703 41.328C168.873 41.1787 169.055 41.0933 169.247 41.072ZM167.775 34.896C167.967 34.6613 168.255 34.544 168.639 34.544C168.959 34.544 169.183 34.5867 169.311 34.672C169.375 34.5867 169.535 34.4587 169.791 34.288C170.068 34.096 170.345 33.9573 170.623 33.872C170.367 33.616 170.239 33.136 170.239 32.432C170.239 31.9627 170.303 31.536 170.431 31.152C170.26 30.8107 170.175 30.4907 170.175 30.192C170.175 29.9147 170.228 29.6907 170.335 29.52C170.249 29.3707 170.207 29.168 170.207 28.912C170.207 28.5493 170.281 28.2293 170.431 27.952C170.303 27.7173 170.239 27.4293 170.239 27.088C170.239 26.9387 170.26 26.7787 170.303 26.608C170.111 26.352 170.015 25.9893 170.015 25.52C170.015 25.2 170.068 24.912 170.175 24.656C170.047 24.5707 169.94 24.4213 169.855 24.208C169.769 23.9733 169.716 23.76 169.695 23.568C169.439 23.5893 169.183 23.5573 168.927 23.472C168.671 23.3653 168.5 23.2267 168.415 23.056C168.137 23.2053 167.86 23.28 167.583 23.28C167.177 23.28 166.761 23.1307 166.335 22.832C166.249 23.0027 166.025 23.1947 165.663 23.408C165.3 23.6213 164.991 23.7493 164.735 23.792C164.713 24.0053 164.607 24.1973 164.415 24.368C164.244 24.5387 164.02 24.6667 163.743 24.752C163.743 24.944 163.657 25.2 163.487 25.52C163.337 25.84 163.177 26.064 163.007 26.192L163.039 26.672C163.039 27.0773 162.985 27.4507 162.879 27.792C162.793 28.1333 162.644 28.336 162.431 28.4C162.58 28.528 162.697 28.7307 162.783 29.008C162.868 29.264 162.911 29.5413 162.911 29.84C162.911 30.3093 162.836 30.6827 162.687 30.96C162.857 31.0453 163.028 31.216 163.199 31.472C163.369 31.7067 163.455 31.9733 163.455 32.272C163.455 32.4213 163.423 32.592 163.359 32.784C163.465 32.848 163.604 33.0507 163.775 33.392C163.945 33.7333 164.041 33.9573 164.063 34.064C164.383 34.0853 164.692 34.1493 164.991 34.256C165.311 34.3627 165.535 34.5227 165.663 34.736C165.983 34.544 166.292 34.448 166.591 34.448C166.996 34.448 167.391 34.5973 167.775 34.896Z" fill="#124C5F"/>
</svg>
