<svg width="32" height="32" viewBox="0 0 32 32" fill="none" xmlns="http://www.w3.org/2000/svg">
<path d="M22.25 4C19.6688 4 17.4088 5.11 16 6.98625C14.5912 5.11 12.3312 4 9.75 4C7.69528 4.00232 5.72539 4.81958 4.27248 6.27248C2.81958 7.72539 2.00232 9.69528 2 11.75C2 20.5 14.9737 27.5825 15.5262 27.875C15.6719 27.9533 15.8346 27.9943 16 27.9943C16.1654 27.9943 16.3281 27.9533 16.4737 27.875C17.0262 27.5825 30 20.5 30 11.75C29.9977 9.69528 29.1804 7.72539 27.7275 6.27248C26.2746 4.81958 24.3047 4.00232 22.25 4ZM16 25.85C13.7175 24.52 4 18.4612 4 11.75C4.00198 10.2256 4.60842 8.76423 5.68633 7.68633C6.76423 6.60842 8.22561 6.00198 9.75 6C12.1813 6 14.2225 7.295 15.075 9.375C15.1503 9.55841 15.2785 9.71528 15.4432 9.82569C15.6079 9.93609 15.8017 9.99503 16 9.99503C16.1983 9.99503 16.3921 9.93609 16.5568 9.82569C16.7215 9.71528 16.8497 9.55841 16.925 9.375C17.7775 7.29125 19.8187 6 22.25 6C23.7744 6.00198 25.2358 6.60842 26.3137 7.68633C27.3916 8.76423 27.998 10.2256 28 11.75C28 18.4513 18.28 24.5188 16 25.85Z" fill="#E07B67"/>
</svg>
